<?xml version="1.0" encoding="utf-8"?>
<!-- Generator: Adobe Illustrator 27.5.0, SVG Export Plug-In . SVG Version: 6.00 Build 0)  -->
<svg version="1.1" xmlns="http://www.w3.org/2000/svg" xmlns:xlink="http://www.w3.org/1999/xlink" x="0px" y="0px"
	 viewBox="0 0 500 500" style="enable-background:new 0 0 500 500;" xml:space="preserve">
<g id="Background_Complete">
	<g>
		<rect y="382.398" style="fill:#EBEBEB;" width="500" height="0.25"/>
		<rect x="416.779" y="398.494" style="fill:#EBEBEB;" width="33.122" height="0.25"/>
		<rect x="322.527" y="401.208" style="fill:#EBEBEB;" width="8.693" height="0.25"/>
		<rect x="396.586" y="389.208" style="fill:#EBEBEB;" width="19.192" height="0.25"/>
		<rect x="52.459" y="390.888" style="fill:#EBEBEB;" width="43.193" height="0.25"/>
		<rect x="104.556" y="390.888" style="fill:#EBEBEB;" width="6.333" height="0.25"/>
		<rect x="131.471" y="395.111" style="fill:#EBEBEB;" width="93.676" height="0.25"/>
		<path style="fill:#EBEBEB;" d="M237.014,337.8H43.915c-3.147,0-5.708-2.561-5.708-5.708V60.66c0-3.147,2.561-5.708,5.708-5.708
			h193.099c3.146,0,5.707,2.561,5.707,5.708v271.432C242.721,335.239,240.16,337.8,237.014,337.8z M43.915,55.203
			c-3.01,0-5.458,2.448-5.458,5.458v271.432c0,3.01,2.448,5.458,5.458,5.458h193.099c3.009,0,5.457-2.448,5.457-5.458V60.66
			c0-3.009-2.448-5.458-5.457-5.458H43.915z"/>
		<path style="fill:#EBEBEB;" d="M453.31,337.8H260.212c-3.147,0-5.707-2.561-5.707-5.708V60.66c0-3.147,2.561-5.708,5.707-5.708
			H453.31c3.148,0,5.708,2.561,5.708,5.708v271.432C459.019,335.239,456.458,337.8,453.31,337.8z M260.212,55.203
			c-3.009,0-5.457,2.448-5.457,5.458v271.432c0,3.01,2.448,5.458,5.457,5.458H453.31c3.01,0,5.458-2.448,5.458-5.458V60.66
			c0-3.009-2.448-5.458-5.458-5.458H260.212z"/>
	</g>
	<g>
		<polygon style="fill:#E0E0E0;" points="54.381,384.774 54.381,335.461 77.141,335.461 77.141,289.728 80.35,289.728 
			80.35,315.941 89.104,315.941 89.104,308.69 104.861,308.69 104.861,283.593 107.779,283.593 107.779,252.918 110.113,252.918 
			110.113,283.035 115.657,283.035 115.657,327.653 126.162,327.653 126.162,283.035 145.128,283.035 145.128,320.768 
			165.04,320.768 165.04,275.035 168.25,275.035 168.25,301.248 177.004,301.248 177.004,293.997 192.761,293.997 192.761,268.9 
			195.679,268.9 195.679,238.225 198.013,238.225 198.013,268.342 203.557,268.342 203.557,312.96 214.062,312.96 214.062,268.342 
			233.028,268.342 233.028,311.5 245.819,311.5 245.819,286.403 248.737,286.403 248.737,255.728 251.071,255.728 251.071,285.845 
			256.615,285.845 256.615,330.463 267.12,330.463 267.12,285.845 286.086,285.845 286.086,330.463 295.424,330.463 
			295.424,335.461 311.781,335.461 311.781,289.728 314.991,289.728 314.991,315.941 323.745,315.941 323.745,308.69 
			339.502,308.69 339.502,283.593 342.42,283.593 342.42,252.918 344.754,252.918 344.754,283.035 349.843,283.035 349.843,280.524 
			368.809,280.524 368.809,283.035 379.314,283.035 379.314,280.524 384.858,280.524 384.858,250.407 387.192,250.407 
			387.192,281.082 390.11,281.082 390.11,306.179 405.867,306.179 405.867,313.43 414.621,313.43 414.621,287.216 417.831,287.216 
			417.831,332.95 440.59,332.95 440.59,384.774 		"/>
		
			<ellipse transform="matrix(0.3827 -0.9239 0.9239 0.3827 95.2581 401.8423)" style="fill:#FAFAFA;" cx="348.329" cy="129.639" rx="27.787" ry="27.787"/>
		<path style="fill:#F0F0F0;" d="M362.744,129.326c0-2.668,2.163-4.83,4.83-4.83c0.482,0,0.947,0.073,1.387,0.204
			c-0.07-0.484-0.108-0.979-0.108-1.483c0-5.649,4.58-10.229,10.229-10.229c0.644,0,1.273,0.063,1.884,0.176
			c1.572-2.573,4.398-4.296,7.634-4.296c4.898,0,8.871,3.935,8.943,8.816c0.05-0.001,0.099-0.007,0.149-0.007
			c4.551,0,8.24,3.689,8.24,8.24c0,4.551-3.689,8.24-8.24,8.24h-30.261l0.006-0.007
			C364.834,134.077,362.744,131.948,362.744,129.326z"/>
		<path style="fill:#F0F0F0;" d="M54.147,205.313c0-2.668,2.163-4.83,4.83-4.83c0.482,0,0.947,0.073,1.387,0.204
			c-0.07-0.485-0.108-0.979-0.108-1.483c0-5.649,4.58-10.229,10.229-10.229c0.644,0,1.273,0.062,1.884,0.176
			c1.572-2.573,4.398-4.296,7.634-4.296c4.898,0,8.871,3.935,8.943,8.816c0.05-0.001,0.099-0.008,0.149-0.008
			c4.551,0,8.24,3.689,8.24,8.24c0,4.551-3.689,8.24-8.24,8.24h-30.26l0.006-0.007C56.237,210.064,54.147,207.935,54.147,205.313z"
			/>
		<path style="fill:#F0F0F0;" d="M216.007,147.599c0-4.221-3.422-7.642-7.643-7.642c-0.763,0-1.499,0.115-2.195,0.324
			c0.111-0.766,0.171-1.549,0.171-2.347c0-8.938-7.246-16.184-16.184-16.184c-1.019,0-2.014,0.099-2.981,0.279
			c-2.487-4.071-6.959-6.798-12.079-6.798c-7.749,0-14.036,6.227-14.151,13.949c-0.079-0.001-0.156-0.012-0.236-0.012
			c-7.2,0-13.037,5.837-13.037,13.037c0,7.201,5.837,13.038,13.037,13.038h47.879l-0.01-0.011
			C212.7,155.116,216.007,151.747,216.007,147.599z"/>
		<path style="fill:#F0F0F0;" d="M353.243,213.207c0-5.079-4.118-9.197-9.197-9.197c-0.919,0-1.804,0.139-2.641,0.389
			c0.134-0.922,0.206-1.864,0.206-2.824c0-10.757-8.72-19.477-19.477-19.477c-1.226,0-2.424,0.119-3.588,0.336
			c-2.994-4.899-8.375-8.18-14.536-8.18c-9.326,0-16.891,7.493-17.029,16.786c-0.095-0.002-0.188-0.014-0.284-0.014
			c-8.665,0-15.689,7.024-15.689,15.689c0,8.665,7.024,15.689,15.689,15.689h57.618l-0.012-0.013
			C349.263,222.253,353.243,218.199,353.243,213.207z"/>
		<path style="fill:#F0F0F0;" d="M302.135,143.798c0-1.659,1.345-3.003,3.003-3.003c0.3,0,0.589,0.045,0.862,0.127
			c-0.044-0.301-0.067-0.609-0.067-0.922c0-3.512,2.847-6.359,6.359-6.359c0.4,0,0.792,0.039,1.172,0.11
			c0.977-1.6,2.734-2.671,4.746-2.671c3.045,0,5.515,2.447,5.56,5.481c0.031-0.001,0.061-0.005,0.093-0.005
			c2.829,0,5.123,2.294,5.123,5.123c0,2.829-2.294,5.123-5.123,5.123h-18.813l0.004-0.004
			C303.434,146.751,302.135,145.428,302.135,143.798z"/>
		<path style="fill:#F0F0F0;" d="M100.823,111.396c0-1.659-1.345-3.003-3.003-3.003c-0.3,0-0.589,0.045-0.862,0.127
			c0.044-0.301,0.067-0.609,0.067-0.922c0-3.512-2.847-6.359-6.359-6.359c-0.4,0-0.792,0.039-1.172,0.11
			c-0.977-1.6-2.734-2.671-4.746-2.671c-3.045,0-5.515,2.447-5.56,5.481c-0.031-0.001-0.061-0.005-0.093-0.005
			c-2.829,0-5.123,2.294-5.123,5.123c0,2.829,2.293,5.123,5.123,5.123h18.813l-0.004-0.004
			C99.524,114.35,100.823,113.026,100.823,111.396z"/>
	</g>
</g>
<g id="Background_Simple" style="display:none;">
	<g style="display:inline;">
		<path style="fill:#577AFA;" d="M126.861,94.319c53.104-21.32,90.384,30.07,100.442,66.064
			c10.058,35.995,34.924,46.078,57.806,33.247c22.882-12.831,61.857-66.208,111.054-22.23s-19.069,153.429-124.268,165.22
			c-58.847,6.595-143.534-16.167-173.214-103.659C80.997,180.83,84.368,111.379,126.861,94.319z"/>
		<path style="opacity:0.9;fill:#FFFFFF;enable-background:new    ;" d="M126.861,94.319c53.104-21.32,90.384,30.07,100.442,66.064
			c10.058,35.995,34.924,46.078,57.806,33.247c22.882-12.831,61.857-66.208,111.054-22.23s-19.069,153.429-124.268,165.22
			c-58.847,6.595-143.534-16.167-173.214-103.659C80.997,180.83,84.368,111.379,126.861,94.319z"/>
	</g>
</g>
<g id="Shadow_1_">
	<ellipse id="_x3C_Path_x3E__359_" style="fill:#F5F5F5;" cx="250" cy="416.238" rx="193.889" ry="11.323"/>
</g>
<g id="Sign">
	<g>
		<rect x="124.147" y="125.992" style="fill:#2E353A;" width="5.397" height="266.915"/>
		<path style="fill:#407BFF;" d="M146.084,163.462h-38.477c-2.641,0-4.782-2.141-4.782-4.781v-38.477
			c0-2.641,2.141-4.782,4.782-4.782h38.477c2.641,0,4.782,2.141,4.782,4.782v38.477
			C150.865,161.322,148.725,163.462,146.084,163.462z"/>
		<path style="fill:none;stroke:#FFFFFF;stroke-width:2;stroke-miterlimit:10;" d="M107.607,160.462
			c-0.982,0-1.782-0.799-1.782-1.782v-38.477c0-0.982,0.799-1.782,1.782-1.782h38.477c0.982,0,1.781,0.799,1.781,1.782v38.477
			c0,0.982-0.799,1.782-1.781,1.782H107.607z"/>
		
			<text transform="matrix(1 0 0 1 116.6697 147.6416)" style="fill:#FFFFFF; font-family:'Montserrat-SemiBold'; font-size:28.032px;">P</text>
		<polygon style="opacity:0.4;fill:#FFFFFF;enable-background:new    ;" points="129.544,392.907 124.147,392.907 124.147,207.998 
			129.544,214.998 		"/>
		<g>
			<path style="fill:#407BFF;" d="M145.433,201.643h-38.006c-1.344,0-2.433-1.089-2.433-2.433v-22.041
				c0-1.344,1.089-2.433,2.433-2.433h38.006c1.343,0,2.433,1.089,2.433,2.433v22.041
				C147.865,200.554,146.776,201.643,145.433,201.643z"/>
			<path style="opacity:0.4;fill:#FFFFFF;enable-background:new    ;" d="M145.433,201.643h-38.006
				c-1.344,0-2.433-1.089-2.433-2.433v-22.041c0-1.344,1.089-2.433,2.433-2.433h38.006c1.343,0,2.433,1.089,2.433,2.433v22.041
				C147.865,200.554,146.776,201.643,145.433,201.643z"/>
		</g>
		<g>
			<path style="fill:#FFFFFF;" d="M121.635,191.749c0,1.966-1.593,3.559-3.559,3.559s-3.559-1.593-3.559-3.559
				c0-1.966,1.593-3.559,3.559-3.559S121.635,189.783,121.635,191.749z"/>
			<path style="fill:#FFFFFF;" d="M137.36,191.749c0,1.966-1.593,3.559-3.559,3.559c-1.966,0-3.559-1.593-3.559-3.559
				c0-1.966,1.593-3.559,3.559-3.559C135.766,188.19,137.36,189.783,137.36,191.749z"/>
			<path style="fill:#FFFFFF;" d="M117.451,187.066c0,0,1.286-2.473,3.066-3.462l-0.692-0.989c0,0,1.681-0.89,2.374-0.989
				c0.692-0.099,0.692,0.692,0.692,0.692l2.571-0.198v0.692l-2.077,0.396l-1.75,1.133l0.86,1.043l-0.86,1.681l1.948,4.683h3.263
				l1.979-5.065l-1.088-1.299l0.297-1.484l6.231-0.593l0.692,1.385l-1.155,1.187l1.155,1.286c0,0-6.033,0.593-5.341,5.341
				l-0.396,0.791H122c0,0,0.494-2.67-1.187-4.451c-1.681-1.78-4.648-0.657-4.648-0.657S115.769,187.066,117.451,187.066z"/>
		</g>
	</g>
</g>
<g id="Street">
	<g>
		<path style="fill:#263238;" d="M428.541,387.836v12.008H90.229v-12.008c0-2.086,1.455-3.769,3.541-3.769H425
			C427.087,384.067,428.541,385.75,428.541,387.836z"/>
		<g>
			<rect x="109.511" y="384.067" style="fill:#407BFF;" width="21.035" height="15.776"/>
			<rect x="149.828" y="384.067" style="fill:#407BFF;" width="20.159" height="15.776"/>
			<rect x="189.269" y="384.067" style="fill:#407BFF;" width="21.035" height="15.776"/>
			<rect x="229.586" y="384.067" style="fill:#407BFF;" width="20.159" height="15.776"/>
			<rect x="269.026" y="384.067" style="fill:#407BFF;" width="20.159" height="15.776"/>
			<rect x="308.467" y="384.067" style="fill:#407BFF;" width="21.035" height="15.776"/>
			<rect x="348.784" y="384.067" style="fill:#407BFF;" width="20.159" height="15.776"/>
			<rect x="388.224" y="384.067" style="fill:#407BFF;" width="21.035" height="15.776"/>
			<g style="opacity:0.6;enable-background:new    ;">
				<rect x="109.511" y="384.067" style="fill:#FFFFFF;" width="21.035" height="15.776"/>
				<rect x="149.828" y="384.067" style="fill:#FFFFFF;" width="20.159" height="15.776"/>
				<rect x="189.269" y="384.067" style="fill:#FFFFFF;" width="21.035" height="15.776"/>
				<rect x="229.586" y="384.067" style="fill:#FFFFFF;" width="20.159" height="15.776"/>
				<rect x="269.026" y="384.067" style="fill:#FFFFFF;" width="20.159" height="15.776"/>
				<rect x="308.467" y="384.067" style="fill:#FFFFFF;" width="21.035" height="15.776"/>
				<rect x="348.784" y="384.067" style="fill:#FFFFFF;" width="20.159" height="15.776"/>
				<rect x="388.224" y="384.067" style="fill:#FFFFFF;" width="21.035" height="15.776"/>
			</g>
		</g>
		<path style="opacity:0.2;fill:#FFFFFF;enable-background:new    ;" d="M428.541,387.836v12.008H90.229v-12.008
			c0-2.086,1.455-3.769,3.541-3.769H425C427.087,384.067,428.541,385.75,428.541,387.836z"/>
	</g>
</g>
<g id="vehicle_1">
	<g>
		<g>
			<ellipse style="fill:#2E353A;" cx="237.032" cy="373.844" rx="36.322" ry="43.825"/>
			<ellipse cx="243.112" cy="373.844" rx="22.909" ry="27.642"/>
			<g>
				<ellipse style="fill:#407BFF;" cx="248.373" cy="373.478" rx="9.542" ry="11.513"/>
				<ellipse style="opacity:0.4;enable-background:new    ;" cx="248.373" cy="373.478" rx="9.542" ry="11.513"/>
			</g>
		</g>
		<polygon points="199.367,331.495 209.388,361.965 204.378,364.115 195.344,337.335 		"/>
		<g>
			<path style="fill:#2E353A;" d="M203.583,338.07l-7.149,5.745c-0.441,0.354-1.086,0.284-1.44-0.157l0,0
				c-0.354-0.441-0.284-1.086,0.157-1.44l7.149-5.745c0.441-0.354,1.086-0.284,1.44,0.157l0,0
				C204.095,337.071,204.024,337.716,203.583,338.07z"/>
			<path style="fill:#2E353A;" d="M204.844,341.867l-7.149,5.745c-0.441,0.354-1.086,0.284-1.44-0.157l0,0
				c-0.354-0.441-0.284-1.086,0.157-1.44l7.149-5.745c0.441-0.354,1.086-0.284,1.44,0.157v0
				C205.355,340.868,205.285,341.513,204.844,341.867z"/>
			<path style="fill:#2E353A;" d="M206.105,345.664l-7.149,5.745c-0.441,0.354-1.086,0.284-1.44-0.157l0,0
				c-0.354-0.441-0.284-1.086,0.157-1.44l7.149-5.745c0.441-0.354,1.086-0.284,1.44,0.157l0,0
				C206.616,344.665,206.546,345.31,206.105,345.664z"/>
			<path style="fill:#2E353A;" d="M207.366,349.461l-7.149,5.745c-0.441,0.354-1.086,0.284-1.44-0.157l0,0
				c-0.354-0.441-0.284-1.086,0.157-1.44l7.149-5.745c0.441-0.354,1.086-0.284,1.44,0.157l0,0
				C207.877,348.462,207.807,349.107,207.366,349.461z"/>
			<path style="fill:#2E353A;" d="M208.627,353.258l-7.149,5.745c-0.441,0.355-1.086,0.284-1.44-0.157l0,0
				c-0.354-0.441-0.284-1.086,0.157-1.44l7.149-5.745c0.441-0.354,1.086-0.284,1.44,0.157l0,0
				C209.138,352.259,209.068,352.904,208.627,353.258z"/>
			<path style="fill:#2E353A;" d="M209.888,357.055l-7.149,5.745c-0.441,0.354-1.086,0.284-1.44-0.157l0,0
				c-0.354-0.441-0.284-1.086,0.157-1.44l7.149-5.745c0.441-0.354,1.086-0.284,1.44,0.157l0,0
				C210.399,356.056,210.329,356.701,209.888,357.055z"/>
		</g>
		<g>
			<polygon style="fill:#2E353A;" points="189.943,357.514 265.304,354.328 269.671,359.268 257.616,359.777 250.932,374.965 
				184.283,377.782 			"/>
			<polygon style="opacity:0.1;fill:#FFFFFF;enable-background:new    ;" points="199.934,357.091 265.304,354.328 269.671,359.268 
				257.616,359.777 250.932,374.965 194.275,377.36 			"/>
		</g>
		<polygon style="fill:#2E353A;" points="168.037,379.276 156.666,417.482 159.614,417.482 169.894,387.32 179.156,387.32 
			183.08,417.482 185.852,417.482 183.822,378.974 		"/>
		<g>
			<path style="fill:#407BFF;" d="M109.994,319.129l-5.728,18.022l-12.884,40.566l-4.889-3.028l12.478-40.618l5.767-18.782
				C106.298,316.35,108.067,317.635,109.994,319.129z"/>
			<path style="opacity:0.6;fill:#FFFFFF;enable-background:new    ;" d="M109.994,319.129l-5.728,18.022l-12.884,40.566
				l-4.889-3.028l12.478-40.618l5.767-18.782C106.298,316.35,108.067,317.635,109.994,319.129z"/>
			<path style="fill:#2E353A;" d="M125.815,275.146l-20.081,62.005h-1.52c-2.818-3.342-5.243-3.08-5.243-3.08l-1.009-1.481
				l20.601-59.964C118.654,272.665,122.966,269.363,125.815,275.146z"/>
			<path style="fill:#2E353A;" d="M93.884,373.782c0,3.244-1.842,5.873-4.114,5.873s-4.115-2.63-4.115-5.873
				s1.842-5.873,4.115-5.873S93.884,370.538,93.884,373.782z"/>
		</g>
		<path d="M251.915,308.492l18,19.614v1.688h-7.912c0,0-8.505-12.449-26.11-13.219L251.915,308.492z"/>
		<g>
			<path style="fill:#2E353A;" d="M156.666,323.991l12.437,47.636l13.187,12.311l0,0c0,0.847,0.686,1.533,1.533,1.533h9
				c0.847,0,1.533-0.686,1.533-1.533v-24.943c0-7.521,2.74-14.785,7.708-20.432h0c2.873-3.266,6.403-5.89,10.359-7.7l38.109-17.434
				l-2.769-4.937l-63.89,4.148L156.666,323.991z"/>
			<path style="opacity:0.1;fill:#FFFFFF;enable-background:new    ;" d="M156.666,323.991l12.437,47.636l13.187,12.311l0,0
				c0,0.847,0.686,1.533,1.533,1.533h9c0.847,0,1.533-0.686,1.533-1.533v-24.943c0-7.521,2.74-14.785,7.708-20.432h0
				c2.873-3.266,6.403-5.89,10.359-7.7l38.109-17.434l-2.769-4.937l-63.89,4.148L156.666,323.991z"/>
		</g>
		<path style="fill:#2E353A;" d="M184.474,377.48h-23.567c-3.233,0-5.853-2.621-5.853-5.853v-15.09c0-3.233,2.621-5.853,5.853-5.853
			h23.567c3.233,0,5.853,2.621,5.853,5.853v15.09C190.328,374.86,187.707,377.48,184.474,377.48z"/>
		<path style="opacity:0.2;fill:#FFFFFF;enable-background:new    ;" d="M190.332,356.537v15.09c0,3.23-2.63,5.85-5.86,5.85h-23.57
			c-3.23,0-5.85-2.62-5.85-5.85v-15.09c0-3.23,2.62-5.85,5.85-5.85h23.57C187.702,350.687,190.332,353.307,190.332,356.537z"/>
		<path style="opacity:0.2;fill:#FFFFFF;enable-background:new    ;" d="M190.332,356.537v15.09c0,3.23-2.63,5.85-5.86,5.85h-9.52
			c-3.23,0-5.85-2.62-5.85-5.85v-15.09c0-3.23,2.62-5.85,5.85-5.85h9.52C187.702,350.687,190.332,353.307,190.332,356.537z"/>
		<path style="fill:#407BFF;" d="M120.746,290.707c4.721-4.732,18.003-8.879,36.003,0c18,8.879,25.319,20.112,21.363,25.869
			c-3.956,5.757-30.264,20.618-47.67,12.594C113.035,321.146,112.634,298.838,120.746,290.707z"/>
		<path style="opacity:0.2;enable-background:new    ;" d="M120.746,290.707c4.721-4.732,18.003-8.879,36.003,0
			c18,8.879,25.319,20.112,21.363,25.869c-3.956,5.757-30.264,20.618-47.67,12.594C113.035,321.146,112.634,298.838,120.746,290.707
			z"/>
		<path style="fill:#407BFF;" d="M199.033,314.365c-0.15,0.8-0.46,1.54-0.92,2.21c-3.96,5.76-30.26,20.62-47.67,12.6
			c-17.41-8.03-17.81-30.34-9.69-38.47c4.72-4.73,18-8.88,36,0c4.52,2.23,8.37,4.61,11.53,7.01
			C196.253,303.765,199.892,309.985,199.033,314.365z"/>
		<path style="fill:#263238;" d="M110.304,303.063h22.629c2.209,0,4-1.791,4-4v-8.27c0-2.22-1.348-6.174-3.567-6.174l-19.871,2.156
			L110.304,303.063z"/>
		<path style="fill:#263238;" d="M145.003,371.973h-8.276c-2.285,0-4.395-1.249-5.471-3.264
			c-4.33-8.115-16.926-28.912-34.635-34.028c-22.136-6.395,12.031-10.233,24.33-1.4C133.25,342.112,145.003,371.973,145.003,371.973
			z"/>
		<path style="opacity:0.4;enable-background:new    ;" d="M145.003,371.973h-8.276c-2.285,0-4.395-1.249-5.471-3.264
			c-4.33-8.115-16.926-28.912-34.635-34.028c-22.136-6.395,12.031-10.233,24.33-1.4C133.25,342.112,145.003,371.973,145.003,371.973
			z"/>
		<ellipse style="fill:#2E353A;" cx="96.622" cy="375.536" rx="34.92" ry="42.133"/>
		<ellipse cx="102.467" cy="375.536" rx="22.025" ry="26.574"/>
		<g>
			<ellipse style="fill:#407BFF;" cx="107.524" cy="375.184" rx="9.174" ry="11.069"/>
			<ellipse style="opacity:0.4;enable-background:new    ;" cx="107.524" cy="375.184" rx="9.174" ry="11.069"/>
		</g>
		<path style="fill:#407BFF;" d="M68.409,349.163h3.883c3.226,0,6.346-1.067,8.927-3.001c6.029-4.516,18.774-12.085,32.013-7.695
			c15.332,5.084,25.741,25.19,28.707,31.56c0.555,1.193,1.748,1.946,3.064,1.946l0,0c0,0-4.822-39.38-31.771-50.083
			c-26.139-10.382-43.84,11.465-47.657,23.389C64.96,347.201,66.39,349.163,68.409,349.163z"/>
		<g>
			<path style="fill:#407BFF;" d="M130.995,319.129l-5.728,18.022l-12.884,40.566l-4.889-3.028l12.478-40.618l5.767-18.782
				C127.299,316.35,129.069,317.635,130.995,319.129z"/>
			<path style="opacity:0.6;fill:#FFFFFF;enable-background:new    ;" d="M130.995,319.129l-5.728,18.022l-12.884,40.566
				l-4.889-3.028l12.478-40.618l5.767-18.782C127.299,316.35,129.069,317.635,130.995,319.129z"/>
			<path style="fill:#2E353A;" d="M146.817,275.146l-20.081,62.005h-1.52c-2.818-3.342-5.243-3.08-5.243-3.08l-1.009-1.481
				l20.601-59.964C139.656,272.665,143.967,269.363,146.817,275.146z"/>
			<path style="fill:#2E353A;" d="M114.885,373.782c0,3.244-1.842,5.873-4.114,5.873s-4.115-2.63-4.115-5.873
				s1.842-5.873,4.115-5.873S114.885,370.538,114.885,373.782z"/>
		</g>
		<g>
			<g>
				<path style="fill:#407BFF;" d="M120.288,288.353c0,0-2.321,14.608-9.984,14.71c-7.183,0.095-7.853-13.62-1-15.728
					C114.84,285.631,120.288,288.353,120.288,288.353z"/>
				<path style="fill:#263238;" d="M120.288,288.353c0,0-2.321,14.608-9.984,14.71c-7.183,0.095-7.853-13.62-1-15.728
					C114.84,285.631,120.288,288.353,120.288,288.353z"/>
			</g>
			<path style="fill:#407BFF;" d="M105.003,295.07c-0.17,3.71,2.065,6.717,4.993,6.717c2.927,0,5.438-3.007,5.608-6.717
				c0.17-3.71-2.065-6.717-4.993-6.717C107.684,288.353,105.173,291.36,105.003,295.07z"/>
			<path style="opacity:0.7;fill:#FFFFFF;enable-background:new    ;" d="M105.003,295.07c-0.17,3.71,2.065,6.717,4.993,6.717
				c2.927,0,5.438-3.007,5.608-6.717c0.17-3.71-2.065-6.717-4.993-6.717C107.684,288.353,105.173,291.36,105.003,295.07z"/>
			<path style="fill:#FFFFFF;" d="M111.607,296.822c0,1.641-1.033,2.971-2.306,2.971c-1.274,0-2.306-1.33-2.306-2.971
				c0-1.641,1.033-2.971,2.306-2.971C110.575,293.851,111.607,295.181,111.607,296.822z"/>
			<path style="fill:#FFFFFF;" d="M113.558,292.959c0,0.82-0.516,1.486-1.153,1.486c-0.637,0-1.153-0.665-1.153-1.486
				c0-0.82,0.516-1.486,1.153-1.486C113.041,291.473,113.558,292.138,113.558,292.959z"/>
		</g>
		<g>
			<g>
				<path style="fill:#407BFF;" d="M132.43,288.353c0,0-2.321,14.608-9.984,14.71c-7.183,0.095-7.853-13.62-1-15.728
					C126.983,285.631,132.43,288.353,132.43,288.353z"/>
				<path style="fill:#263238;" d="M132.43,288.353c0,0-2.321,14.608-9.984,14.71c-7.183,0.095-7.853-13.62-1-15.728
					C126.983,285.631,132.43,288.353,132.43,288.353z"/>
			</g>
			<path style="fill:#407BFF;" d="M117.146,295.07c-0.17,3.71,2.066,6.717,4.993,6.717s5.438-3.007,5.608-6.717
				c0.17-3.71-2.065-6.717-4.993-6.717S117.316,291.36,117.146,295.07z"/>
			<path style="opacity:0.7;fill:#FFFFFF;enable-background:new    ;" d="M117.146,295.07c-0.17,3.71,2.066,6.717,4.993,6.717
				s5.438-3.007,5.608-6.717c0.17-3.71-2.065-6.717-4.993-6.717S117.316,291.36,117.146,295.07z"/>
			<path style="fill:#FFFFFF;" d="M123.749,296.822c0,1.641-1.032,2.971-2.306,2.971c-1.274,0-2.306-1.33-2.306-2.971
				c0-1.641,1.033-2.971,2.306-2.971C122.717,293.851,123.749,295.181,123.749,296.822z"/>
			<ellipse style="fill:#FFFFFF;" cx="124.547" cy="292.959" rx="1.153" ry="1.486"/>
		</g>
		<path style="fill:#407BFF;" d="M133.022,297.983L133.022,297.983c0.416,0,0.785-0.265,0.919-0.658l6.727-19.809
			c0.325-0.957-0.387-1.95-1.397-1.95h-16.313c-0.973,0-1.891,0.453-2.483,1.226l-7.542,9.851h16.601
			c1.391,0,2.518,1.127,2.518,2.518v7.853C132.052,297.548,132.486,297.983,133.022,297.983z"/>
		<g>
			<path style="fill:#2E353A;" d="M127.384,316.576h-21.99c-1.449,0-2.2-1.113-1.677-2.486l3.253-8.539
				c0.523-1.373,2.122-2.486,3.571-2.486h21.99c1.449,0,2.2,1.113,1.677,2.486l-3.253,8.539
				C130.432,315.462,128.833,316.576,127.384,316.576z"/>
			<path style="opacity:0.2;fill:#FFFFFF;enable-background:new    ;" d="M127.384,316.576h-21.99c-1.449,0-2.2-1.113-1.677-2.486
				l3.253-8.539c0.523-1.373,2.122-2.486,3.571-2.486h21.99c1.449,0,2.2,1.113,1.677,2.486l-3.253,8.539
				C130.432,315.462,128.833,316.576,127.384,316.576z"/>
		</g>
		<ellipse style="opacity:0.2;fill:#FFFFFF;enable-background:new    ;" cx="176.883" cy="364.082" rx="6.989" ry="11.538"/>
		<path style="fill:#407BFF;" d="M172.719,336.143l3.394,10.313c0.459,1.396,1.762,2.339,3.231,2.339h12.433
			c1.118,0,2.165-0.55,2.8-1.47l8.62-12.494c1.03-1.493,0.708-3.531-0.733-4.633l-6.37-4.875c-1.05-0.803-2.465-0.925-3.638-0.316
			c-3.473,1.804-11.055,5.496-17.172,6.741C173.283,332.154,172.081,334.203,172.719,336.143z"/>
		<path style="fill:#2E353A;" d="M148.465,358.962l8.623,19.198c1.524,3.392,4.93,5.537,8.648,5.44
			c7.169-0.189,18.135,0.183,18.135,0.183s1.978-2.504,1.978-6.461h-13.782c-2.952,0-5.577-1.876-6.533-4.668l-4.561-13.319
			L148.465,358.962z"/>
		<g>
			<path style="fill:#2E353A;" d="M168.023,336.775l-0.04,0.56l-0.08,0.97l-0.21,2.54l-0.07,0.97l-0.21,2.54l-0.08,0.97l-0.2,2.54
				l-0.08,0.97l-0.2,2.54l-0.08,0.97l-0.25,3.11c-0.18,2.19-2.01,3.88-4.21,3.88h-15.34c-1.92,0-3.59-1.29-4.08-3.14l-1.01-3.85
				l-0.26-0.97l-0.67-2.54l-0.25-0.97l-0.67-2.54l-0.26-0.97l-0.67-2.54l-0.25-0.97l-0.67-2.54l-0.26-0.97l-0.59-2.25
				c-0.26-0.97-0.16-2.01,0.29-2.92c0.35-0.72,0.89-1.32,1.55-1.73c0.66-0.41,1.44-0.64,2.24-0.64h19.21c0.92,0,1.82,0.3,2.55,0.85
				l3.19,2.42C167.512,333.935,168.142,335.335,168.023,336.775z"/>
			<path style="opacity:0.2;fill:#FFFFFF;enable-background:new    ;" d="M168.023,336.775l-0.04,0.56l-0.08,0.97l-0.21,2.54
				l-0.07,0.97l-0.21,2.54l-0.08,0.97l-0.2,2.54l-0.08,0.97l-0.2,2.54l-0.08,0.97l-0.25,3.11c-0.18,2.19-2.01,3.88-4.21,3.88h-15.34
				c-1.92,0-3.59-1.29-4.08-3.14l-1.01-3.85l-0.26-0.97l-0.67-2.54l-0.25-0.97l-0.67-2.54l-0.26-0.97l-0.67-2.54l-0.25-0.97
				l-0.67-2.54l-0.26-0.97l-0.59-2.25c-0.26-0.97-0.16-2.01,0.29-2.92c0.35-0.72,0.89-1.32,1.55-1.73c0.66-0.41,1.44-0.64,2.24-0.64
				h19.21c0.92,0,1.82,0.3,2.55,0.85l3.19,2.42C167.512,333.935,168.142,335.335,168.023,336.775z"/>
			<path style="opacity:0.2;fill:#FFFFFF;enable-background:new    ;" d="M168.023,336.775l-0.04,0.56l-0.08,0.97l-0.21,2.54
				l-0.07,0.97l-0.21,2.54l-0.08,0.97l-0.2,2.54l-0.08,0.97l-0.2,2.54l-0.08,0.97l-0.25,3.11c-0.18,2.19-2.01,3.88-4.21,3.88h-1.34
				c-1.91,0-3.59-1.29-4.08-3.14l-1.01-3.85l-0.26-0.97l-0.67-2.54l-0.25-0.97l-0.67-2.54l-0.26-0.97l-0.67-2.54l-0.25-0.97
				l-0.67-2.54l-0.26-0.97l-0.59-2.25c-0.26-0.97-0.16-2.01,0.29-2.92c0.35-0.72,0.89-1.32,1.55-1.73c0.66-0.41,1.44-0.64,2.24-0.64
				h5.21c0.92,0,1.82,0.3,2.55,0.85l3.19,2.42C167.512,333.935,168.142,335.335,168.023,336.775z"/>
			<polygon style="opacity:0.2;enable-background:new    ;" points="167.982,337.335 167.903,338.305 138.182,338.305 
				137.922,337.335 			"/>
			<polygon style="opacity:0.2;enable-background:new    ;" points="167.692,340.845 167.622,341.815 139.102,341.815 
				138.852,340.845 			"/>
			<polygon style="opacity:0.2;enable-background:new    ;" points="167.412,344.355 167.333,345.325 140.033,345.325 
				139.773,344.355 			"/>
			<polygon style="opacity:0.2;enable-background:new    ;" points="167.133,347.865 167.053,348.835 140.952,348.835 
				140.702,347.865 			"/>
			<polygon style="opacity:0.2;enable-background:new    ;" points="166.852,351.375 166.773,352.345 141.883,352.345 
				141.622,351.375 			"/>
		</g>
		<path style="opacity:0.2;fill:#FFFFFF;enable-background:new    ;" d="M185.852,377.325c0,3.47-1.53,5.83-1.9,6.35
			c-0.05,0.07-0.08,0.11-0.08,0.11s-5.44-0.18-11.16-0.23h-0.78c-1.11-0.01-2.23-0.01-3.31,0c-1,0-1.98,0.01-2.89,0.04
			c-3.71,0.1-7.12-2.04-8.64-5.44l-8.63-19.19l4.05,0.12l8.46,0.25l4.56,13.32c0.96,2.79,3.58,4.67,6.53,4.67H185.852z"/>
		<path style="opacity:0.2;fill:#FFFFFF;enable-background:new    ;" d="M185.852,377.325c0,3.47-1.53,5.83-1.9,6.35
			c-3.03-0.07-7.36-0.15-11.24-0.12h-0.78c-0.76,0.01-1.5,0.02-2.2,0.04c-0.37,0.01-0.75,0-1.11-0.04c-3.27-0.31-6.16-2.35-7.53-5.4
			l-8.58-19.07l8.46,0.25l4.56,13.32c0.96,2.79,3.58,4.67,6.53,4.67H185.852z"/>
		<path style="fill:#2E353A;" d="M199.029,311.656l0.714,0.021c0.779,0.022,1.396,0.661,1.388,1.44
			c-0.014,1.382-0.033,3.458-0.033,4.666c0,2.673,4.928,7.732,5.917,8.02c0.989,0.288,47.077-14.281,47.077-14.281
			s0.791-9.933-3.56-11.936c-4.352-2.003-28.397,0.137-30.462,2.201c-2.064,2.064-9.001,6.706-16.27,6.706
			C203.799,308.492,199.029,309.769,199.029,311.656z"/>
		<path style="fill:#407BFF;" d="M266.992,299.795l-20.22,19.65l-24.03,7.14l-0.73-5.07l23.63-16.74c0.76-0.54,1.04-1.54,0.67-2.4
			l-0.45-1.05c-0.35-0.82-1.15-1.34-2.04-1.34h-18.17c0,0,3.91-1.35,7.27-2.54c3.37-1.19,26.31,0,29.67,0c1.84,0,2.99,0.7,3.64,1.34
			C266.783,299.315,266.992,299.795,266.992,299.795z"/>
		<path style="fill:#2E353A;" d="M141.622,277.827c0,0,8.299,0.207,12.615-9.094h6.871v2.989l19.401,6.105
			c0,0,0.395,3.242-0.791,3.896l-21.165-5.547h-5.601c0,0-4.151,5.35-8.985,5.605C139.133,282.036,141.622,277.827,141.622,277.827z
			"/>
		<path style="fill:#2E353A;" d="M155.52,273.674v4.483c0,0,9.21,1.714,12.517,5.275v1.187h1.197v-1.187c0,0-0.956-2.286-9.62-6.066
			v-3.692H155.52z"/>
		<path style="fill:#2E353A;" d="M120.475,276.791c0,0-1.673-3.777-1.512-7.337h-5.406l-1.153,2.769l-11.874,8.967
			c0,0-0.816,2.901,3.02,2.505l10.562-7.102l-0.555,2.18c0,0-5.11,2.887-6.563,4.959c-1.453,2.073,1.316,1.756,1.316,1.756
			l0.132-1.793c0,0,3.527-3.446,7.17-3.503L120.475,276.791z"/>
		<path style="opacity:0.2;enable-background:new    ;" d="M199.033,314.365c-3.84,7.65-22.02,14.48-29.8,12.22
			c-7.77-2.26-21.76-13.75-9.62-18.09c9.7-3.48,23.51-8.79,28.67-10.78C196.253,303.765,199.892,309.985,199.033,314.365z"/>
		<path style="opacity:0.2;enable-background:new    ;" d="M246.313,302.375l-0.45-1.05c-0.35-0.82-1.15-1.34-2.04-1.34h-18.17
			c0,0,3.91-1.35,7.27-2.54c3.37-1.19,26.31,0,29.67,0c1.84,0,2.99,0.7,3.64,1.34c0,0-14.6,1.74-20.59,5.99
			C246.403,304.235,246.682,303.235,246.313,302.375z"/>
		<path style="fill:#2E353A;" d="M194.355,377.059l18.396-1.582c0,0,10.375-3.674,12.902-3.695
			c2.527-0.02,27.252-1.121,27.252-1.121s3.561,2.4,4.352,4.816s-3.143,7.515-3.143,7.515s-39.29,1.291-40.92,1.261
			c-1.629-0.03-3.805-1.261-3.805-1.261l-15.033-1.054V377.059z"/>
		<path style="opacity:0.2;fill:#FFFFFF;enable-background:new    ;" d="M194.355,377.059l18.396-1.582
			c0,0,10.375-3.674,12.902-3.695c2.527-0.02,27.252-1.121,27.252-1.121s3.561,2.4,4.352,4.816s-3.143,7.515-3.143,7.515
			s-39.29,1.291-40.92,1.261c-1.629-0.03-3.805-1.261-3.805-1.261l-15.033-1.054V377.059z"/>
	</g>
</g>
<g id="vehicle_2">
	<g>
		<g>
			<polygon points="257.344,417.669 264.632,397.387 278.707,397.387 277.915,417.669 275.344,417.669 274.157,399.563 
				267.453,399.563 259.52,417.669 			"/>
			<path style="fill:#2E353A;" d="M314.712,387.261l-3.91,8.998c-1.511,3.478-4.942,5.728-8.735,5.728h-16.391
				c-2.176,0-4.262-0.864-5.801-2.403l0,0h-30.618c-2.399,0-4.652-1.154-6.054-3.102l-4.049-5.625L314.712,387.261z"/>
			<path style="opacity:0.4;enable-background:new    ;" d="M314.712,387.261l-3.91,8.998c-1.511,3.478-4.942,5.728-8.735,5.728
				h-16.391c-2.176,0-4.262-0.864-5.801-2.403l0,0h-30.618c-2.399,0-4.652-1.154-6.054-3.102l-4.049-5.625L314.712,387.261z"/>
			
				<path style="fill:none;stroke:#263238;stroke-width:0.6684;stroke-linecap:round;stroke-linejoin:round;stroke-miterlimit:10;" d="
				M260.865,281.995c0,0-0.062,0.209-4.949,0.688c-4.887,0.479-11.485,3.093-12.699,6.081"/>
			
				<path style="fill:none;stroke:#263238;stroke-width:0.6684;stroke-linecap:round;stroke-linejoin:round;stroke-miterlimit:10;" d="
				M219.781,281.995c0,0,2.451-0.329,3.046,1.773c0.595,2.102,0.911,3.538,3.087,4.594"/>
			<g>
				<path style="fill:#2E353A;" d="M368.951,379.276h-1.888v-2.895h3.776C370.84,376.381,370.84,378.287,368.951,379.276z"/>
				<g>
					<ellipse style="fill:#2E353A;" cx="339.866" cy="387.32" rx="25.153" ry="30.349"/>
					<ellipse style="opacity:0.4;enable-background:new    ;" cx="339.866" cy="387.32" rx="25.153" ry="30.349"/>
					<ellipse cx="344.076" cy="387.32" rx="15.865" ry="19.142"/>
					<g>
						<path style="fill:#407BFF;" d="M347.719,379.094c3.65,0,6.608,3.57,6.608,7.973c0,4.403-2.958,7.973-6.608,7.973
							s-6.608-3.57-6.608-7.973C341.111,382.663,344.07,379.094,347.719,379.094z"/>
						<path style="opacity:0.4;enable-background:new    ;" d="M347.719,379.094c3.65,0,6.608,3.57,6.608,7.973
							c0,4.403-2.958,7.973-6.608,7.973s-6.608-3.57-6.608-7.973C341.111,382.663,344.07,379.094,347.719,379.094z"/>
					</g>
				</g>
				<path style="fill:#2E353A;" d="M366.508,371.773c0,0,2.84,6.152,0,11.013c0,0-12.363,6.541-27.209,6.541
					C324.452,389.327,343.764,370.336,366.508,371.773z"/>
				<path style="opacity:0.2;fill:#FFFFFF;enable-background:new    ;" d="M366.508,371.773c0,0,2.84,6.152,0,11.013
					c0,0-12.363,6.541-27.209,6.541C324.452,389.327,343.764,370.336,366.508,371.773z"/>
			</g>
			<path style="fill:#263238;" d="M356.199,333.303c0,0,2.428,0.747,2.428,6.211c0,3.313-3.361,6.661-3.361,6.661
				S349.849,333.116,356.199,333.303z"/>
			<path style="opacity:0.7;fill:#FFFFFF;enable-background:new    ;" d="M356.199,333.303c0,0,2.428,0.747,2.428,6.211
				c0,3.313-3.361,6.661-3.361,6.661S349.849,333.116,356.199,333.303z"/>
			<path style="fill:#263238;" d="M345.297,331.802h12.022c0,0,1.86,3.186-2.992,6.918
				C349.476,342.453,345.297,331.802,345.297,331.802z"/>
			<path style="fill:#FFFFFF;" d="M357.879,338.091c0,1.068-0.334,1.934-0.747,1.934s-0.747-0.866-0.747-1.934
				c0-1.068,0.335-1.934,0.747-1.934S357.879,337.023,357.879,338.091z"/>
			<g>
				<path style="fill:#407BFF;" d="M289.769,351.573c0,4.311-17.206,34.971-18.931,36.19c-1.724,1.219-24.176-0.146-24.176-0.146
					l1.675,6.362h61.7l25.609-49.746l-16.94-24.447l-30.877,0.854C287.83,320.639,289.769,347.263,289.769,351.573z"/>
				<path style="opacity:0.5;fill:#FFFFFF;enable-background:new    ;" d="M289.769,351.573c0,4.311-17.206,34.971-18.931,36.19
					c-1.724,1.219-24.176-0.146-24.176-0.146l1.675,6.362h61.7l25.609-49.746l-16.94-24.447l-30.877,0.854
					C287.83,320.639,289.769,347.263,289.769,351.573z"/>
			</g>
			<g>
				<path style="fill:#407BFF;" d="M199.725,341.478c0,0,20.062,15.383,29.662,47.025c1.126,3.712,4.512,6.277,8.391,6.277h29.674
					l-34.446-56.033l-18.165-7.555L199.725,341.478z"/>
				<path style="opacity:0.2;fill:#FFFFFF;enable-background:new    ;" d="M197.346,339.706c0,0,22.191,16.969,32.035,48.838
					c1.14,3.691,4.515,6.236,8.378,6.236h29.694l-34.446-56.033l-18.165-7.555L197.346,339.706z"/>
			</g>
			<path style="fill:#407BFF;" d="M370.23,368.8c-0.123,1.227-1.199,2.134-2.427,2.134h-4.362c-0.812,0-1.577,0.34-2.115,0.935
				l-13.048,14.388c-0.396,0.434-0.85,0.803-1.359,1.095c-8.657,4.862-18.438,7.43-28.38,7.43h-60.97
				c-3.352,0-6.109-2.643-6.401-5.976c-1.482-17.617-12.094-30.57-21.025-38.51c-3.484-3.097-6.722-5.428-9.054-6.986
				c-2.219-1.482-4.824-2.19-7.496-2.19h-14.029c-1.775,0-3.031-2.256-2.483-3.937c2.313-7.024,6.599-14.568,10.876-21.053
				c6.25-9.46,12.462-16.654,12.462-16.654h19.628c2.068,0,3.861,1.124,4.985,2.757c0.972,1.397,1.444,3.182,1.171,4.928
				c-1.284,8.129-1.218,16.38-0.265,24.386c2.814,23.942,13.463,45.713,19.024,55.626c1.992,3.559,5.759,6.005,9.828,6.005h15.257
				c11.15-3.201,19.77-34.413,19.77-42.57c0-8.62-8.771-29.513-8.771-29.513h43.703v10.385c0.802,0.094,0.406,0.198,0.661,0.321
				c16.739,6.722,22.583,23.886,24.66,33.884C370.287,366.733,370.334,367.78,370.23,368.8z"/>
			<path style="opacity:0.7;fill:#FFFFFF;enable-background:new    ;" d="M345.408,331.798c-0.255-0.123,0.142-0.227-0.661-0.321
				v-10.385h-43.702c0,0,8.771,20.893,8.771,29.513c0,8.157-8.62,39.369-19.769,42.569h-15.257c-4.069,0-7.836-2.445-9.828-6.004
				c-5.561-9.913-16.21-31.684-19.024-55.626c-0.953-8.006-1.02-16.258,0.264-24.386c0.274-1.747-0.198-3.531-1.171-4.928
				c-1.123-1.633-2.917-2.757-4.985-2.757h-19.628c0,0-6.212,7.194-12.462,16.654c-4.277,6.486-8.563,14.029-10.876,21.053
				c-0.547,1.681,0.708,3.937,2.483,3.937h14.029c2.672,0,5.277,0.708,7.496,2.19c2.332,1.558,5.57,3.89,9.054,6.986
				c8.931,7.94,19.543,20.893,21.025,38.51c0.293,3.333,3.049,5.976,6.401,5.976h50.746v-19.316c0-5.646,1.237-11.216,3.625-16.323
				l7.222-15.455c3.371-7.222,10.621-11.839,18.599-11.839h6.76l0.774-0.047C346.979,332.475,347.053,332.46,345.408,331.798z"/>
			<g>
				<path style="fill:#2E353A;" d="M231.04,292.972h5.592c1.468,0,2.906-0.509,4.048-1.433l11.526-9.329
					c0.455-0.368,1.027-0.571,1.612-0.571h22.135c0.885,0,1.602-0.717,1.602-1.602c0-0.885-0.717-1.602-1.602-1.602h-22.135
					c-1.316,0-2.604,0.456-3.627,1.284l-11.526,9.329c-0.573,0.464-1.295,0.72-2.032,0.72h-5.592c-1.599,0-2.973-1.194-3.197-2.777
					l-0.51-3.599c-0.4-2.826-2.854-4.957-5.708-4.957h-4.216c-0.885,0-1.602,0.717-1.602,1.602c0,0.885,0.717,1.602,1.602,1.602
					h4.216c1.268,0,2.358,0.947,2.537,2.203l0.51,3.599C225.117,290.595,227.856,292.972,231.04,292.972z"/>
			</g>
			<g>
				<path style="fill:#263238;" d="M245.051,297.266l-2.502,4.022h-23.263l-1.822-3.437c-0.604-1.133-0.406-2.511,0.491-3.427
					l6.911-7.071c0.264-0.274,0.566-0.5,0.887-0.68c0.17-0.094,0.34-0.179,0.519-0.246c0.434-0.17,0.906-0.255,1.378-0.255h13.255
					c0,0-0.066,3.786,3.474,3.55l1.161,4.097C245.873,294.99,245.694,296.237,245.051,297.266z"/>
				<path style="opacity:0.4;fill:#FFFFFF;enable-background:new    ;" d="M232.146,291.261l-7.402-0.264l1.01-4.324
					c0.17-0.094,0.34-0.179,0.519-0.246c0.434-0.17,0.906-0.255,1.378-0.255h11.556L232.146,291.261z"/>
			</g>
			<path style="fill:#2E353A;" d="M283.88,319.992V323c0,2.733,2.237,4.503,4.97,4.503h54.163c2.741,0,4.94-1.77,4.94-4.503v-3.009
				c0-2.733-2.198-4.502-4.94-4.502H288.85C286.117,315.49,283.88,317.259,283.88,319.992z"/>
			<path style="opacity:0.1;fill:#FFFFFF;enable-background:new    ;" d="M301.5,319.992V323c0,2.733,1.868,4.503,4.61,4.503h36.904
				c2.741,0,4.94-1.77,4.94-4.503v-3.009c0-2.733-2.198-4.502-4.94-4.502h-36.904C303.368,315.49,301.5,317.259,301.5,319.992z"/>
			<g>
				
					<rect x="252.244" y="272.975" transform="matrix(0.6075 -0.7943 0.7943 0.6075 -115.6553 313.5084)" style="fill:#2E353A;" width="14.283" height="1.602"/>
			</g>
			<path style="fill:#263238;" d="M268.302,266.234h-4.085c-0.866,0-1.649,0.516-1.99,1.312l-0.547,1.277
				c-0.612,1.428,0.436,3.018,1.99,3.018h4.45c1.077,0,1.991-0.792,2.143-1.859l0.182-1.277
				C270.632,267.401,269.62,266.234,268.302,266.234z"/>
			<g>
				
					<rect x="221.809" y="269.46" transform="matrix(0.9785 -0.206 0.206 0.9785 -51.8073 51.7547)" style="fill:#2E353A;" width="1.602" height="10.367"/>
			</g>
			<path style="fill:#263238;" d="M216.752,266.234h4.396c0.89,0,1.645,0.655,1.771,1.536l0.29,2.029
				c0.154,1.077-0.682,2.041-1.771,2.041h-4.395c-0.89,0-1.645-0.655-1.77-1.536l-0.29-2.029
				C214.827,267.198,215.663,266.234,216.752,266.234z"/>
			<g>
				<path style="fill:#407BFF;enable-background:new    ;" d="M245.599,311.965c-0.453,4.758-0.472,9.535-0.16,14.246
					c0.123,1.794,0.293,3.569,0.5,5.334l-7.046,13.456c-1.704,3.255-5.074,5.294-8.748,5.294l0,0
					c-0.032-0.014-0.061-0.026-0.093-0.039c-0.349-0.355-0.725-0.679-1.068-0.971c-2.936-2.508-5.635-4.461-7.679-5.833
					c-2.279-1.53-4.965-2.333-7.71-2.333h-14.029c-1.775,0-3.031-2.256-2.483-3.937c2.313-7.024,6.599-14.568,10.876-21.053
					c0.075,4.409-0.066,13.076-1.709,22.592h6.741c0,0,12.302-17.428,22.762-20.789l9.281-15.7c0.972,1.397,1.444,3.182,1.171,4.928
					C245.949,308.755,245.75,310.36,245.599,311.965z"/>
				<path style="opacity:0.5;fill:#FFFFFF;enable-background:new    ;" d="M245.599,311.965c-0.453,4.758-0.472,9.535-0.16,14.246
					c0.123,1.794,0.293,3.569,0.5,5.334l-7.046,13.456c-1.704,3.255-5.074,5.294-8.748,5.294l0,0
					c-0.032-0.014-0.061-0.026-0.093-0.039c-0.349-0.355-0.725-0.679-1.068-0.971c-2.936-2.508-5.635-4.461-7.679-5.833
					c-2.279-1.53-4.965-2.333-7.71-2.333h-14.029c-1.775,0-3.031-2.256-2.483-3.937c2.313-7.024,6.599-14.568,10.876-21.053
					c0.075,4.409-0.066,13.076-1.709,22.592h6.741c0,0,12.302-17.428,22.762-20.789l9.281-15.7c0.972,1.397,1.444,3.182,1.171,4.928
					C245.949,308.755,245.75,310.36,245.599,311.965z"/>
				<path style="fill:#407BFF;" d="M206.249,320.942c0,0,0.72,7.678-1.822,14.719h-5.779
					C198.648,335.661,202.397,325.451,206.249,320.942z"/>
				<path style="opacity:0.7;fill:#FFFFFF;enable-background:new    ;" d="M206.249,320.942c0,0,0.72,7.678-1.822,14.719h-5.779
					C198.648,335.661,202.397,325.451,206.249,320.942z"/>
				<path style="fill:#407BFF;" d="M233.589,320.943c0.194-0.115-5.809,15.784-5.809,15.784h-8.792
					C218.988,336.727,223.462,326.946,233.589,320.943z"/>
				<path style="opacity:0.7;fill:#FFFFFF;enable-background:new    ;" d="M233.589,320.943c0.194-0.115-5.809,15.784-5.809,15.784
					h-8.792C218.988,336.727,223.462,326.946,233.589,320.943z"/>
				<path style="fill:#FFFFFF;" d="M228.369,332.384c0,1.971-1.24,3.57-2.771,3.57s-2.771-1.598-2.771-3.57
					c0-1.972,1.24-3.57,2.771-3.57S228.369,330.412,228.369,332.384z"/>
				<path style="fill:#FFFFFF;" d="M205.1,331.192c0,1.972-0.873,3.57-1.951,3.57c-1.077,0-1.95-1.598-1.95-3.57
					c0-1.971,0.873-3.57,1.95-3.57C204.226,327.622,205.1,329.22,205.1,331.192z"/>
				<path style="fill:#FFFFFF;" d="M230.925,327.007c0,0.964-0.607,1.746-1.355,1.746c-0.748,0-1.355-0.782-1.355-1.746
					c0-0.964,0.606-1.746,1.355-1.746C230.318,325.262,230.925,326.043,230.925,327.007z"/>
				<path style="fill:#FFFFFF;" d="M205.826,326.093c0,0.964-0.416,1.746-0.928,1.746s-0.928-0.781-0.928-1.746
					c0-0.964,0.416-1.746,0.928-1.746S205.826,325.129,205.826,326.093z"/>
			</g>
			<g>
				<g>
					<path style="fill:#407BFF;" d="M232.668,302.167c0,0-4.157,26.168-17.884,26.35c-12.866,0.171-14.067-24.396-1.79-28.174
						C222.911,297.291,232.668,302.167,232.668,302.167z"/>
					<path style="fill:#263238;" d="M232.668,302.167c0,0-4.157,26.168-17.884,26.35c-12.866,0.171-14.067-24.396-1.79-28.174
						C222.911,297.291,232.668,302.167,232.668,302.167z"/>
				</g>
				<path style="fill:#407BFF;" d="M205.29,314.198c-0.304,6.645,3.7,12.031,8.943,12.031c5.243,0,9.741-5.387,10.045-12.031
					c0.304-6.645-3.7-12.031-8.943-12.031C210.091,302.167,205.594,307.553,205.29,314.198z"/>
				<path style="opacity:0.7;fill:#FFFFFF;enable-background:new    ;" d="M205.29,314.198c-0.304,6.645,3.7,12.031,8.943,12.031
					c5.243,0,9.741-5.387,10.045-12.031c0.304-6.645-3.7-12.031-8.943-12.031C210.091,302.167,205.594,307.553,205.29,314.198z"/>
				<path style="fill:#FFFFFF;" d="M217.118,317.336c0,2.939-1.85,5.322-4.131,5.322c-2.281,0-4.131-2.383-4.131-5.322
					c0-2.939,1.85-5.322,4.131-5.322C215.269,312.014,217.118,314.397,217.118,317.336z"/>
				<path style="fill:#FFFFFF;" d="M220.613,310.416c0,1.47-0.925,2.661-2.066,2.661c-1.141,0-2.065-1.191-2.065-2.661
					s0.925-2.661,2.065-2.661C219.688,307.755,220.613,308.947,220.613,310.416z"/>
			</g>
			<path style="fill:#407BFF;" d="M369.522,363.291h-4.087c-0.718,0-1.299,0.582-1.299,1.299v2.288c0,0.718,0.582,1.299,1.299,1.299
				h4.85C370.285,368.178,371.08,365.735,369.522,363.291z"/>
			<path style="opacity:0.7;fill:#FFFFFF;enable-background:new    ;" d="M369.522,363.291h-4.087c-0.718,0-1.299,0.582-1.299,1.299
				v2.288c0,0.718,0.582,1.299,1.299,1.299h4.85C370.285,368.178,371.08,365.735,369.522,363.291z"/>
			<path style="fill:#2E353A;" d="M264.36,278.435c0,0-0.133-0.783-2.188-0.783s-2.787,2.988-2.787,2.988l0.826,2.521h2.801
				l1.347-0.479c0,0,5.096,1.319,5.562,2.159c0.467,0.84,1.194,1.027,0.97,0s-5.733-3.244-5.733-3.244L264.36,278.435z"/>
			<path style="fill:#2E353A;" d="M223.226,278.667c0,0-0.428-1.014-1.609-1.014s-1.835,0.582-1.928,1.598
				c-0.093,1.016,0,1.857,0,1.857l-1.14,0.887c0,0-3.473,1.641-3.763,1.871c-0.29,0.23-0.438,1.164,0.179,1.07
				c0.617-0.093,1.55-0.934,2.671-1.587c1.12-0.654,2.979-0.758,2.979-0.758l2.103-1.293L223.226,278.667z"/>
			<g>
				<g>
					<polygon style="fill:#407BFF;" points="206.667,341.582 192.807,386.714 196.33,388.891 210.241,345.089 					"/>
					<polygon style="opacity:0.6;fill:#FFFFFF;enable-background:new    ;" points="206.667,341.582 192.807,386.714 
						196.33,388.891 210.241,345.089 					"/>
					<path style="fill:#2E353A;" d="M212.442,341.119l-5.778,18.552h-1.095c-2.03-2.407-3.776-2.219-3.776-2.219l-0.727-1.067
						l4.381-15.266H212.442z"/>
					<path style="fill:#2E353A;" d="M198.128,386.057c0,2.337-1.327,4.231-2.964,4.231c-1.637,0-2.964-1.894-2.964-4.231
						c0-2.337,1.327-4.231,2.964-4.231C196.801,381.826,198.128,383.72,198.128,386.057z"/>
				</g>
				<ellipse style="fill:#2E353A;" cx="201.023" cy="387.32" rx="25.153" ry="30.349"/>
				<ellipse style="opacity:0.4;enable-background:new    ;" cx="201.023" cy="387.32" rx="25.153" ry="30.349"/>
				<path style="fill:#263238;" d="M235.872,384.754h-5.962c-1.646,0-3.166-0.899-3.941-2.352
					c-3.119-5.845-12.192-20.826-24.948-24.511c-15.945-4.606,8.666-7.371,17.525-1.009
					C227.407,363.245,235.872,384.754,235.872,384.754z"/>
				<path style="opacity:0.4;enable-background:new    ;" d="M235.872,384.754h-5.962c-1.646,0-3.166-0.899-3.941-2.352
					c-3.119-5.845-12.192-20.826-24.948-24.511c-15.945-4.606,8.666-7.371,17.525-1.009
					C227.407,363.245,235.872,384.754,235.872,384.754z"/>
				<ellipse cx="205.233" cy="387.32" rx="15.865" ry="19.142"/>
				<g>
					<path style="fill:#407BFF;" d="M208.876,379.094c3.65,0,6.608,3.57,6.608,7.973c0,4.403-2.958,7.973-6.608,7.973
						c-3.65,0-6.608-3.57-6.608-7.973C202.268,382.663,205.226,379.094,208.876,379.094z"/>
					<path style="opacity:0.4;enable-background:new    ;" d="M208.876,379.094c3.65,0,6.608,3.57,6.608,7.973
						c0,4.403-2.958,7.973-6.608,7.973c-3.65,0-6.608-3.57-6.608-7.973C202.268,382.663,205.226,379.094,208.876,379.094z"/>
				</g>
				<path style="fill:#407BFF;" d="M180.701,368.324h2.797c2.323,0,4.571-0.769,6.431-2.162c4.343-3.253,13.523-8.705,23.059-5.543
					c11.044,3.662,18.542,18.145,20.678,22.733c0.4,0.859,1.259,1.402,2.207,1.402l0,0c0,0-3.473-28.366-22.885-36.076
					c-18.828-7.478-31.579,8.259-34.328,16.847C178.216,366.91,179.246,368.324,180.701,368.324z"/>
				<path style="opacity:0.5;fill:#FFFFFF;enable-background:new    ;" d="M180.701,368.324h2.797c2.323,0,4.571-0.769,6.431-2.162
					c4.343-3.253,13.523-8.705,23.059-5.543c11.044,3.662,18.542,18.145,20.678,22.733c0.4,0.859,1.259,1.402,2.207,1.402l0,0
					c0,0-3.473-28.366-22.885-36.076c-18.828-7.478-31.579,8.259-34.328,16.847C178.216,366.91,179.246,368.324,180.701,368.324z"/>
				<g>
					<path style="fill:#407BFF;" d="M225.783,346.689l-4.126,12.981l-9.281,29.22l-3.521-2.181l8.988-29.258l4.154-13.529
						C223.12,344.688,224.395,345.613,225.783,346.689z"/>
					<path style="opacity:0.6;fill:#FFFFFF;enable-background:new    ;" d="M225.783,346.689l-4.126,12.981l-9.281,29.22
						l-3.521-2.181l8.988-29.258l4.154-13.529C223.12,344.688,224.395,345.613,225.783,346.689z"/>
					<path style="fill:#2E353A;" d="M226.566,347.303l-3.852,12.368h-1.095c-2.03-2.407-3.776-2.219-3.776-2.219l-0.727-1.067
						l3.786-13.189c0.066,0.028,0.123,0.076,0.189,0.113c0.293,0.189,0.595,0.397,0.906,0.614c1.123,0.765,2.398,1.69,3.786,2.766
						C226.037,346.888,226.302,347.095,226.566,347.303z"/>
					<path style="fill:#2E353A;" d="M214.178,386.057c0,2.337-1.327,4.231-2.964,4.231c-1.637,0-2.964-1.894-2.964-4.231
						c0-2.337,1.327-4.231,2.964-4.231C212.851,381.826,214.178,383.72,214.178,386.057z"/>
				</g>
			</g>
			<path style="opacity:0.5;fill:#FFFFFF;enable-background:new    ;" d="M370.23,368.8c-0.123,1.227-1.199,2.134-2.427,2.134
				h-4.362c-0.812,0-1.577,0.34-2.115,0.935l-13.048,14.388c-0.396,0.434-0.85,0.803-1.359,1.095
				c-8.657,4.862-18.438,7.43-28.38,7.43h-10.224v-19.316c0-5.646,1.236-11.216,3.625-16.324l7.222-15.455
				c3.37-7.222,10.621-11.839,18.599-11.839h6.76l0.774-0.047c7.052,2.832,12.198,7.524,15.927,12.745
				c0.396,0.547,0.774,1.105,1.142,1.662c1.227,1.888,2.285,3.824,3.181,5.75c0.803,1.69,1.492,3.38,2.068,5.013
				c1.152,3.172,1.926,6.174,2.455,8.714C370.287,366.733,370.334,367.78,370.23,368.8z"/>
		</g>
		<g>
			<path style="fill:#407BFF;" d="M306.805,291.594c-0.24,0.343-0.427,0.731-0.552,1.167c-0.153,0.533-0.297,1.068-0.433,1.606
				c-1.209,4.783-2.052,10.301-0.278,15.053c0.739,1.98,2.474,4.847,4.664,5.501c1.634,0.488,4.021,0.124,5.736,0.176
				c2.034,0.061,4.069,0.123,6.103,0.184c0.399,0.012,0.815,0.021,1.179-0.142c0.397-0.178,0.68-0.536,0.942-0.884
				c1.106-1.468,2.136-2.993,3.084-4.567c0.987-1.638,1.9-3.369,2.215-5.256c0.382-2.288-0.148-4.647-1.041-6.788
				c-1.174-2.815-3.092-5.457-5.844-6.772c-0.738-0.352-1.52-0.602-2.308-0.819C316.956,289.14,309.216,288.145,306.805,291.594z"/>
			<path style="opacity:0.4;enable-background:new    ;" d="M306.805,291.594c-0.24,0.343-0.427,0.731-0.552,1.167
				c-0.153,0.533-0.297,1.068-0.433,1.606c-1.209,4.783-2.052,10.301-0.278,15.053c0.739,1.98,2.474,4.847,4.664,5.501
				c1.634,0.488,4.021,0.124,5.736,0.176c2.034,0.061,4.069,0.123,6.103,0.184c0.399,0.012,0.815,0.021,1.179-0.142
				c0.397-0.178,0.68-0.536,0.942-0.884c1.106-1.468,2.136-2.993,3.084-4.567c0.987-1.638,1.9-3.369,2.215-5.256
				c0.382-2.288-0.148-4.647-1.041-6.788c-1.174-2.815-3.092-5.457-5.844-6.772c-0.738-0.352-1.52-0.602-2.308-0.819
				C316.956,289.14,309.216,288.145,306.805,291.594z"/>
			<path style="fill:#E4897B;" d="M321.961,307.195c0.158-1.127,1.513-2.929,3.596-2.493c2.155,0.451,2.756,5.025-2.768,5.571
				C321.996,310.351,321.631,309.548,321.961,307.195z"/>
			<path style="fill:#263238;" d="M326.239,289.743c0,0-9.634-3.75-17.347,0.748c-7.713,4.498,10.841,8.021,10.841,8.021
				l-4.116-3.258c0,0,5.4,3.077,8.121,2.86L326.239,289.743z"/>
			<g>
				<path style="fill:#263238;" d="M305.717,310.1c0,0,0.507,3.205,3.779,3.977c4.437,1.046,11.626-2.514,11.626-2.514l0.374,2.009
					c0,0-7.099,3.137-11.978,2.057C306.922,315.054,305.026,311.808,305.717,310.1z"/>
				<path style="fill:#263238;" d="M311.201,315.841l-0.261-1.58c0,0-1.331-0.804-2.223-1.002c-0.892-0.197-1.436-0.028-1.436-0.028
					s-0.146,1.578,1.182,2.164C309.793,315.98,311.201,315.841,311.201,315.841z"/>
				<path style="opacity:0.5;fill:#FFFFFF;" d="M311.201,315.841l-0.261-1.58c0,0-1.331-0.804-2.223-1.002
					c-0.892-0.197-1.436-0.028-1.436-0.028s-0.146,1.578,1.182,2.164C309.793,315.98,311.201,315.841,311.201,315.841z"/>
			</g>
			<path style="fill:#407BFF;" d="M333.142,310.471c-3.392,4.859-9.072,7.684-12.189,4.063c-3.127-3.622,1.325-17.149,1.325-17.149
				c-7.251-4.379-15.94-3.714-15.94-3.714c0.606-5.369,7.546-10.92,19.686-6.176c4.321,1.685,6.888,4.508,8.247,7.649
				c0.158,0.367,0.307,0.732,0.424,1.103c0.263,0.756,0.462,1.533,0.591,2.31c0.162,0.893,0.243,1.784,0.255,2.665
				C335.63,304.954,334.55,308.454,333.142,310.471z"/>
			<path style="fill:#263238;" d="M306.658,291.49c0,0,8.353-1.288,17.104,3.434c0,0,1.099,3.585,1.093,4.673
				c-0.006,1.088-21.584-3.48-22.662-4.911c-1.078-1.431,3.107-1.32,3.107-1.32L306.658,291.49z"/>
		</g>
	</g>
</g>
<g id="Character">
	<g>
		<g>
			<path style="fill:#E4897B;" d="M387.474,217.125c-0.159,3.861,1.427,10.104,4.435,12.111c0,0-1.996,4.151-8.963,5.425
				c-7.661,1.401-4.245-3.111-4.245-3.111c4.028-1.757,3.444-4.821,2.268-7.583L387.474,217.125z"/>
			<g>
				<path style="fill:#263238;" d="M371.341,213.908c0.127,0.497-0.035,0.975-0.361,1.067c-0.326,0.093-0.693-0.235-0.819-0.732
					c-0.127-0.497,0.035-0.975,0.361-1.067C370.848,213.084,371.214,213.411,371.341,213.908z"/>
				<path style="fill:#263238;" d="M370.673,213.163l-1.285-0.003C369.388,213.16,370.24,213.917,370.673,213.163z"/>
				<path style="fill:#A02724;" d="M371.044,214.511c0,0-0.301,2.379-0.968,3.676c0.814,0.425,1.861-0.173,1.861-0.173
					L371.044,214.511z"/>
				<path style="fill:#263238;" d="M369.826,210.786c0.048-0.004,0.096-0.02,0.139-0.048c1.136-0.742,2.163-0.345,2.206-0.327
					c0.155,0.062,0.331-0.012,0.394-0.167c0.063-0.155-0.01-0.33-0.164-0.394c-0.055-0.022-1.354-0.541-2.766,0.381
					c-0.14,0.091-0.179,0.279-0.088,0.419C369.61,210.747,369.719,210.795,369.826,210.786z"/>
				<path style="fill:#E4897B;" d="M387.667,207.801c1.179,6.207,1.811,8.806-0.482,12.816c-3.449,6.033-11.342,6.354-14.355,0.68
					c-2.712-5.107-4.184-14.4,1.188-18.533C379.311,198.693,386.488,201.593,387.667,207.801z"/>
			</g>
			<path style="fill:#263238;" d="M389.983,202.831c-2.656-4.546-5.706-7.001-14.328-4.548c-6.469,1.84-11.991,11.031-1.481,16.232
				c0,0,2.97,4.257,6.386,5.8c3.416,1.544,4.311,2.033,7.869-0.095C391.346,218.476,394.056,209.803,389.983,202.831z"/>
			<path style="fill:#E4897B;" d="M375.616,213.38c0.392,1.08,0.325,2.397,0.009,3.447c-0.476,1.579-1.675,1.628-2.348,0.57
				c-0.606-0.952-1.088-2.921-0.223-4.207C373.905,211.922,375.168,212.145,375.616,213.38z"/>
			<path style="fill:#263238;" d="M386.715,200.145c0,0,0.54-5.558,5.534-5.584c4.994-0.026,8.965,4.98,9.39,13.805
				c0.425,8.825,10.527,5.42,12.97,7.105c2.443,1.685,2.604,3.497,2.604,3.497s-1.305-2.666-4.073-2.06c0,0,1.79,0.454,2.021,2.358
				c0,0-0.975-0.776-2.273-0.588c0,0,0.868,2.465-4.922,2.623c-5.791,0.157-12.594-1.037-16.438-9.943
				C387.684,202.452,386.715,200.145,386.715,200.145z"/>
			
				<path style="fill:none;stroke:#263238;stroke-width:0.5103;stroke-linecap:round;stroke-linejoin:round;stroke-miterlimit:10;" d="
				M389.613,197.48c0,0,10.076-5.907,12.942,7.649c1.956,9.252,9.016,7.299,9.016,7.299"/>
			
				<path style="fill:none;stroke:#263238;stroke-width:0.5103;stroke-linecap:round;stroke-linejoin:round;stroke-miterlimit:10;" d="
				M372.893,201.734c0,0-5.466,0.601-5.511,5.401c-0.044,4.8,6.372,7.547,10.552,6.834"/>
		</g>
		<g>
			<path style="fill:#263238;" d="M362.936,285.547c0,0,5.198-15.646,10.169-26.244l0.903,1.615c0,0-7.842,19.581-8.447,23.921
				L362.936,285.547z"/>
			<path style="opacity:0.2;fill:#FFFFFF;enable-background:new    ;" d="M362.936,285.547c0,0,5.198-15.646,10.169-26.244
				l0.903,1.615c0,0-7.842,19.581-8.447,23.921L362.936,285.547z"/>
		</g>
		<g>
			<path style="fill:#DC897C;" d="M406.113,233.304c0.36,1.875,0.747,3.905,1.196,5.845c0.433,1.961,0.885,3.916,1.404,5.845
				c1.055,3.856,2.206,7.625,3.794,11.137l5.221,11.204l2.568,5.673c0.826,1.908,1.678,3.804,2.467,5.731l-3.36,1.822
				c-1.187-1.72-2.306-3.473-3.445-5.218l-3.314-5.292c-2.177-3.562-4.292-7.099-6.339-10.833
				c-2.117-3.917-3.684-8.026-4.913-12.138c-0.612-2.062-1.184-4.128-1.669-6.211c-0.464-2.105-0.907-4.141-1.232-6.357
				L406.113,233.304z"/>
		</g>
		<path style="fill:#E4897B;" d="M422.453,278.43c0,0,3.454,4.901,3.548,5.557s0.285,3.597,0.069,3.667
			c-0.216,0.07-4.468,0.51-4.468,0.51l-2.567-4.493c0,0-0.7-2.822-0.112-4.37L422.453,278.43z"/>
		<g>
			<path style="fill:#DC897C;" d="M373.761,241.205c-0.968,2.02-1.995,3.833-3.062,5.705c-1.081,1.846-2.24,3.649-3.437,5.436
				c-2.393,3.562-5.108,7.022-8.292,10.134c-3.063,2.959-6.132,5.709-9.267,8.465l-4.735,4.07c-1.606,1.328-3.195,2.67-4.838,3.961
				l-2.668-2.736c1.326-1.606,2.701-3.165,4.056-4.742l4.136-4.656l8.31-9.151c2.558-2.883,4.775-6.141,6.927-9.51
				c1.067-1.688,2.079-3.421,3.074-5.165c1.005-1.72,1.977-3.544,2.876-5.227L373.761,241.205z"/>
		</g>
		<path style="fill:#E4897B;" d="M337.851,276.038c0,0-4.753,3.655-5.037,4.255c-0.285,0.599-1.339,3.351-1.153,3.482
			c0.186,0.131,4.116,1.812,4.116,1.812l3.784-3.529c0,0,1.506-2.488,1.403-4.14L337.851,276.038z"/>
		<path style="fill:#407BFF;" d="M402.995,230.723c3.376,0.399,7.274,11.088,7.274,11.088l-10.343,4.244
			C399.926,246.054,395.059,229.784,402.995,230.723z"/>
		<path style="fill:#263238;" d="M398.724,269.427c-5.039,0.182-15.731,0.576-26.07,0.958c-6.469-37.068-3.429-37.761-3.429-37.761
			s2.759-1.018,6.159-1.771c0.13-0.029,0.251-0.052,0.363-0.076c1.709-0.338,2.065-0.373,4.331-0.665
			c3.864-0.3,7.448-0.478,11.837-0.43c0.282,0.003,0.564,0.005,0.837,0.015c0.794,0.025,1.576,0.064,2.333,0.107
			c0.512,0.022,1.018,0.068,1.501,0.11c0.572,0.056,1.127,0.109,1.649,0.166c2.789,0.294,4.761,0.643,4.761,0.643
			C398.119,252.466,398.193,258.941,398.724,269.427z"/>
		<path style="opacity:0.2;" d="M372.673,244.135c0.217,5.107-1.472,9.063-2.466,10.926c-1.027-7.21-1.486-12.103-1.63-15.424
			C370.554,239.686,372.523,240.637,372.673,244.135z"/>
		<path style="fill:#EEC1BB;" d="M386.05,360.651c-6.605,25.145-19.014,54.979-19.014,54.979l-4.301-1.673l12.604-53.306H386.05z"/>
		<path style="fill:#263238;" d="M369.312,413.176c0.125-0.567-6.908-1.82-6.908-1.82s-5.321,3.29-9.697,3.251
			c-4.377-0.039-2.672,3.01,1.953,4.142c4.625,1.132,8.155,1.996,11.442,2.8C369.387,422.354,368.019,419.052,369.312,413.176z"/>
		<g>
			<path style="fill:#407BFF;" d="M358.326,412.237c-0.253-0.062-0.455-0.162-0.57-0.316c-0.107-0.143-0.192-0.394,0.013-0.779
				c0.099-0.186,0.262-0.314,0.484-0.378c0.419-0.121,1.023,0.011,1.594,0.21c-0.489-0.438-0.893-0.924-0.825-1.293
				c0.045-0.24,0.246-0.398,0.598-0.471c0.33-0.066,0.634-0.002,0.902,0.195c0.839,0.618,1.028,2.363,1.037,2.453
				c0.003,0.025,0,0.051-0.007,0.076l0,0c0,0.001,0,0.001,0,0.001l-0.001,0.001l0,0c-0.006,0.02-0.015,0.038-0.027,0.054
				l-0.001,0.001l0,0c-0.012,0.017-0.027,0.031-0.044,0.043l0,0l0,0.001c-0.02,0.014-0.043,0.024-0.068,0.029
				C361.004,412.146,359.294,412.474,358.326,412.237z M359.212,411.174c-0.332-0.081-0.635-0.112-0.853-0.049
				c-0.123,0.036-0.207,0.099-0.257,0.194c-0.135,0.255-0.066,0.347-0.044,0.377c0.261,0.349,1.622,0.277,2.749,0.095
				C360.354,411.567,359.745,411.304,359.212,411.174z M360.033,409.58c-0.106-0.026-0.218-0.026-0.337-0.001
				c-0.106,0.021-0.286,0.073-0.304,0.171c-0.058,0.316,0.8,1.096,1.73,1.737c-0.1-0.528-0.335-1.421-0.823-1.779
				C360.215,409.646,360.126,409.603,360.033,409.58z"/>
		</g>
		<path style="fill:#407BFF;" d="M398.861,265.806c0,0,9.709,20.48,6.278,39.807c-3.431,19.326-13.8,44.133-16.595,50.151
			c-2.795,6.018-13.234,41.649-13.234,41.649l-9.033-2.941c0,0,8.071-35.366,10.606-47.686c1.197-5.82,11.451-47.266,11.451-47.266
			s-17.568-13.054-16.325-33.482L398.861,265.806z"/>
		<path style="opacity:0.2;fill:#FFFFFF;enable-background:new    ;" d="M366.28,394.471l9.032,2.943
			c0,0,10.436-35.631,13.236-41.652c1.438-3.095,4.88-11.181,8.364-20.932c3.265-9.185,6.563-19.849,8.229-29.22
			c3.425-19.325-6.284-39.8-6.284-39.8l-26.852,0.228c-1.243,20.433,16.331,33.483,16.331,33.483s-1.802,7.29-3.983,16.179
			c-3.028,12.322-6.774,27.715-7.468,31.089C374.348,359.103,366.28,394.471,366.28,394.471z"/>
		<path style="fill:#EEC1BB;" d="M407.299,370.734c7.102,19.832,11.607,39.328,11.607,39.328l-4.381,1.463l-18.349-40.791H407.299z"
			/>
		<path style="fill:#263238;" d="M419.09,406.723c-0.266-0.516-6.48,3.008-6.48,3.008s-1.997,5.929-5.391,8.692
			c-3.395,2.763-0.136,4.022,4.147,1.942c4.283-2.08,7.552-3.668,10.596-5.146C425.006,413.741,421.844,412.072,419.09,406.723z"/>
		<g>
			<path style="fill:#407BFF;" d="M410.033,413.01c-0.234,0.114-0.454,0.165-0.64,0.121c-0.173-0.042-0.399-0.181-0.487-0.608
				c-0.043-0.207,0.002-0.409,0.132-0.6c0.246-0.36,0.795-0.645,1.361-0.855c-0.656-0.025-1.278-0.142-1.461-0.469
				c-0.119-0.214-0.065-0.464,0.16-0.744c0.212-0.262,0.487-0.406,0.819-0.426c1.041-0.06,2.3,1.163,2.364,1.227
				c0.018,0.017,0.033,0.039,0.043,0.064l0,0c0,0.001,0,0.001,0,0.001v0.001l0,0c0.008,0.019,0.012,0.039,0.013,0.059l0,0.001l0,0
				c0.001,0.021-0.001,0.041-0.007,0.061l0,0v0.001c-0.007,0.024-0.018,0.046-0.034,0.066
				C412.037,411.231,410.929,412.575,410.033,413.01z M410.036,411.626c-0.308,0.149-0.56,0.319-0.688,0.507
				c-0.072,0.106-0.096,0.208-0.075,0.313c0.058,0.283,0.17,0.309,0.207,0.319c0.423,0.102,1.426-0.822,2.177-1.681
				C411.167,411.201,410.53,411.387,410.036,411.626z M409.652,409.875c-0.098,0.048-0.184,0.119-0.26,0.214
				c-0.068,0.084-0.174,0.238-0.125,0.325c0.157,0.28,1.316,0.333,2.44,0.233c-0.414-0.343-1.165-0.88-1.769-0.844
				C409.833,409.81,409.738,409.833,409.652,409.875z"/>
		</g>
		<path style="opacity:0.2;enable-background:new    ;" d="M366.28,394.471l9.032,2.943c0,0,10.436-35.631,13.236-41.652
			c1.438-3.095,4.88-11.181,8.364-20.932l-3.212-27.944c0,0,3.838-2.249,6.239-10.909c0,0-3.281,2.969-7.443,3.256
			c-1.04,0.068-4.119,6.647-8.144,16.466c-3.028,12.322-6.774,27.715-7.468,31.089C374.348,359.103,366.28,394.471,366.28,394.471z"
			/>
		<path style="fill:#407BFF;" d="M370.025,311.025c1.617,10.06,4.126,17.738,6.858,24.11c3.568,8.292,7.511,14.393,10.378,20.686
			c5.066,11.135,18.545,41.201,18.545,41.201l10.366-3.598c0,0-14.413-40.493-19.902-49.429c0,0-3.431-29.053-3.774-44.76
			c0,0,3.679-3.259,4.92-10.743c1.311-7.906-25.05-20-25.05-20S366.313,287.871,370.025,311.025z"/>
		<path style="opacity:0.2;fill:#FFFFFF;enable-background:new    ;" d="M370.025,311.025c1.617,10.06,4.126,17.738,6.858,24.11
			c3.568,8.292,7.511,14.393,10.378,20.686c5.066,11.135,18.545,41.201,18.545,41.201l10.366-3.598c0,0-14.413-40.493-19.902-49.429
			c0,0-3.431-29.053-3.774-44.76c0,0,3.679-3.259,4.92-10.743c1.311-7.906-25.05-20-25.05-20S366.313,287.871,370.025,311.025z"/>
		<g>
			<g>
				<polygon style="fill:#263238;" points="390.185,270.596 376.147,270.809 375.982,266.588 390.034,266.738 				"/>
				<polygon style="fill:#263238;" points="374.745,266.575 374.91,270.828 373.492,270.849 373.105,266.557 				"/>
				<polygon style="fill:#263238;" points="391.272,266.752 398.721,266.832 399.048,270.461 391.421,270.577 				"/>
			</g>
		</g>
		<path style="fill:#407BFF;" d="M376.295,230.684c0,0,1.498-4.622,9.781-6.018c8.283-1.396,13.801-1.531,10.975,6.948
			C394.225,240.092,376.295,230.684,376.295,230.684z"/>
		<path style="fill:#407BFF;" d="M369.224,232.624c-3.933,1.816-8.509,13.43-8.509,13.43l8.509,4.501l3.449-6.421
			c0,0,0.825-4.446,0.019-7.407C371.885,233.767,369.224,232.624,369.224,232.624z"/>
		<g>
			<path style="fill:#263238;" d="M398.234,230.08c0.215,17.269-17.333,50.733-17.333,50.733s-9.488,3.241-16.149,0
				c0,0-4.037,7.464-4.037,7.906c0,1.379,1.413,1.397,1.413,1.397s-3.835,9.529,0.202,12.421c4.037,2.892,17.504,2.375,19.451-0.092
				c1.947-2.467,1.329-19.642,1.329-19.642s16.124-31.127,17.272-52.469L398.234,230.08z"/>
			<path style="opacity:0.2;fill:#FFFFFF;enable-background:new    ;" d="M383.113,282.805c0,0,0.612,17.176-1.337,19.645
				c-1.939,2.46-15.41,2.98-19.441,0.092c-4.041-2.898-0.204-12.43-0.204-12.43s-1.418-0.01-1.418-1.398
				c0-0.439,4.041-7.899,4.041-7.899c6.664,3.235,16.145,0,16.145,0s17.553-33.464,17.339-50.731l2.143,0.255
				C399.238,251.678,383.113,282.805,383.113,282.805z"/>
			<path style="opacity:0.2;fill:#FFFFFF;enable-background:new    ;" d="M380.899,280.815c0,0-2.01,9.879-5.991,10.287
				c-3.97,0.398-12.777-0.99-12.777-0.99s-1.418-0.01-1.418-1.398c0-0.439,4.041-7.899,4.041-7.899
				C371.418,284.05,380.899,280.815,380.899,280.815z"/>
		</g>
	</g>
</g>
</svg>
