<?xml version="1.0" encoding="utf-8"?>
<!-- Generator: Adobe Illustrator 27.5.0, SVG Export Plug-In . SVG Version: 6.00 Build 0)  -->
<svg version="1.1" xmlns="http://www.w3.org/2000/svg" xmlns:xlink="http://www.w3.org/1999/xlink" x="0px" y="0px"
	 viewBox="0 0 500 500" style="enable-background:new 0 0 500 500;" xml:space="preserve">
<g id="Background_complete">
	<g>
		<g id="freepik--background-complete--inject-481">
			<polygon style="fill:#F0F0F0;" points="361.897,164.206 361.897,136.435 344.703,136.435 344.703,142.768 333.242,142.768 
				333.242,73.398 311.206,73.398 311.206,100.702 304.594,100.702 304.594,87.068 287.4,87.068 287.4,153.56 263.155,153.56 
				263.155,130.068 247.953,130.068 247.953,79.132 229.191,79.132 229.191,113.089 211.557,113.089 211.557,186.242 
				197.895,186.242 197.895,150.62 183.787,150.62 183.787,127.699 168.801,127.699 168.801,110.1 152.081,118.921 152.081,166.003 
				134.447,166.003 134.447,156.291 110.892,156.291 110.892,224.532 385.069,224.665 385.069,164.206 			"/>
			<path style="fill:#E6E6E6;" d="M184.937,224.568v-101.53h-18.734v101.627C172.132,224.518,184.937,224.568,184.937,224.568z"/>
			<path style="fill:#FAFAFA;" d="M167.875,224.665v-55.84H129.32v55.717L167.875,224.665z"/>
			<path style="fill:#E0E0E0;" d="M214.72,224.583v-81.974h-21.841v81.964L214.72,224.583z"/>
			<rect x="194.537" y="145.82" style="fill:#FAFAFA;" width="2.647" height="5.462"/>
			<rect x="199.832" y="145.82" style="fill:#FAFAFA;" width="2.647" height="5.462"/>
			<rect x="205.127" y="145.82" style="fill:#FAFAFA;" width="2.648" height="5.462"/>
			<rect x="210.422" y="145.82" style="fill:#FAFAFA;" width="2.647" height="5.462"/>
			<rect x="194.537" y="154.981" style="fill:#FAFAFA;" width="2.647" height="5.462"/>
			<rect x="199.832" y="154.981" style="fill:#FAFAFA;" width="2.647" height="5.462"/>
			<rect x="205.127" y="154.981" style="fill:#FAFAFA;" width="2.648" height="5.462"/>
			<rect x="210.422" y="154.981" style="fill:#FAFAFA;" width="2.647" height="5.462"/>
			<rect x="194.537" y="164.136" style="fill:#FAFAFA;" width="2.647" height="5.462"/>
			<rect x="199.832" y="164.136" style="fill:#FAFAFA;" width="2.647" height="5.462"/>
			<rect x="205.127" y="164.136" style="fill:#FAFAFA;" width="2.648" height="5.462"/>
			<rect x="210.422" y="164.136" style="fill:#FAFAFA;" width="2.647" height="5.462"/>
			<rect x="194.537" y="173.29" style="fill:#FAFAFA;" width="2.647" height="5.462"/>
			<rect x="199.832" y="173.29" style="fill:#FAFAFA;" width="2.647" height="5.462"/>
			<rect x="205.127" y="173.29" style="fill:#FAFAFA;" width="2.648" height="5.462"/>
			<rect x="210.422" y="173.29" style="fill:#FAFAFA;" width="2.647" height="5.462"/>
			<rect x="194.537" y="182.445" style="fill:#FAFAFA;" width="2.647" height="5.462"/>
			<rect x="199.832" y="182.445" style="fill:#FAFAFA;" width="2.647" height="5.462"/>
			<rect x="205.127" y="182.445" style="fill:#FAFAFA;" width="2.648" height="5.462"/>
			<rect x="210.422" y="182.445" style="fill:#FAFAFA;" width="2.647" height="5.462"/>
			<rect x="194.537" y="191.6" style="fill:#FAFAFA;" width="2.647" height="5.462"/>
			<rect x="199.832" y="191.6" style="fill:#FAFAFA;" width="2.647" height="5.462"/>
			<rect x="205.127" y="191.6" style="fill:#FAFAFA;" width="2.648" height="5.462"/>
			<rect x="210.422" y="191.6" style="fill:#FAFAFA;" width="2.647" height="5.462"/>
			<rect x="194.537" y="200.754" style="fill:#FAFAFA;" width="2.647" height="5.462"/>
			<rect x="199.832" y="200.754" style="fill:#FAFAFA;" width="2.647" height="5.462"/>
			<rect x="205.127" y="200.754" style="fill:#FAFAFA;" width="2.648" height="5.462"/>
			<rect x="210.422" y="200.754" style="fill:#FAFAFA;" width="2.647" height="5.462"/>
			<rect x="194.537" y="209.916" style="fill:#FAFAFA;" width="2.647" height="5.462"/>
			<rect x="199.832" y="209.916" style="fill:#FAFAFA;" width="2.647" height="5.462"/>
			<rect x="205.127" y="209.916" style="fill:#FAFAFA;" width="2.648" height="5.462"/>
			<rect x="210.422" y="209.916" style="fill:#FAFAFA;" width="2.647" height="5.462"/>
			<path style="fill:#F5F5F5;" d="M290.618,224.619v-93.688h-45.285v93.719C245.333,224.651,290.271,224.665,290.618,224.619z"/>
			<rect x="248.733" y="134.666" style="fill:#E6E6E6;" width="5.49" height="6.291"/>
			<rect x="259.72" y="134.666" style="fill:#E6E6E6;" width="5.49" height="6.291"/>
			<rect x="270.7" y="134.666" style="fill:#E6E6E6;" width="5.49" height="6.291"/>
			<rect x="281.687" y="134.666" style="fill:#E6E6E6;" width="5.49" height="6.291"/>
			<rect x="248.733" y="145.221" style="fill:#E6E6E6;" width="5.49" height="6.291"/>
			<rect x="259.72" y="145.221" style="fill:#E6E6E6;" width="5.49" height="6.291"/>
			<rect x="270.7" y="145.221" style="fill:#E6E6E6;" width="5.49" height="6.291"/>
			<rect x="281.687" y="145.221" style="fill:#E6E6E6;" width="5.49" height="6.291"/>
			<rect x="248.733" y="155.769" style="fill:#E6E6E6;" width="5.49" height="6.291"/>
			<rect x="259.72" y="155.769" style="fill:#E6E6E6;" width="5.49" height="6.291"/>
			<rect x="270.7" y="155.769" style="fill:#E6E6E6;" width="5.49" height="6.291"/>
			<rect x="281.687" y="155.769" style="fill:#E6E6E6;" width="5.49" height="6.291"/>
			<rect x="248.733" y="166.317" style="fill:#E6E6E6;" width="5.49" height="6.291"/>
			<rect x="259.72" y="166.317" style="fill:#E6E6E6;" width="5.49" height="6.291"/>
			<rect x="270.7" y="166.317" style="fill:#E6E6E6;" width="5.49" height="6.291"/>
			<rect x="281.687" y="166.317" style="fill:#E6E6E6;" width="5.49" height="6.291"/>
			<rect x="248.733" y="176.872" style="fill:#E6E6E6;" width="5.49" height="6.291"/>
			<rect x="259.72" y="176.872" style="fill:#E6E6E6;" width="5.49" height="6.291"/>
			<rect x="270.7" y="176.872" style="fill:#E6E6E6;" width="5.49" height="6.291"/>
			<rect x="281.687" y="176.872" style="fill:#E6E6E6;" width="5.49" height="6.291"/>
			<rect x="248.733" y="187.419" style="fill:#E6E6E6;" width="5.49" height="6.291"/>
			<rect x="259.72" y="187.419" style="fill:#E6E6E6;" width="5.49" height="6.291"/>
			<rect x="270.7" y="187.419" style="fill:#E6E6E6;" width="5.49" height="6.291"/>
			<rect x="281.687" y="187.419" style="fill:#E6E6E6;" width="5.49" height="6.291"/>
			<rect x="248.733" y="197.974" style="fill:#E6E6E6;" width="5.49" height="6.291"/>
			<rect x="259.72" y="197.974" style="fill:#E6E6E6;" width="5.49" height="6.291"/>
			<rect x="270.7" y="197.974" style="fill:#E6E6E6;" width="5.49" height="6.291"/>
			<rect x="281.687" y="197.974" style="fill:#E6E6E6;" width="5.49" height="6.291"/>
			<rect x="248.733" y="208.522" style="fill:#E6E6E6;" width="5.49" height="6.291"/>
			<rect x="259.72" y="208.522" style="fill:#E6E6E6;" width="5.49" height="6.291"/>
			<rect x="270.7" y="208.522" style="fill:#E6E6E6;" width="5.49" height="6.291"/>
			<rect x="281.687" y="208.522" style="fill:#E6E6E6;" width="5.49" height="6.291"/>
			<rect x="169.657" y="129.939" style="fill:#FAFAFA;" width="5.059" height="5.797"/>
			<rect x="169.657" y="139.659" style="fill:#FAFAFA;" width="5.059" height="5.797"/>
			<rect x="169.657" y="149.385" style="fill:#FAFAFA;" width="5.059" height="5.797"/>
			<rect x="169.657" y="159.105" style="fill:#FAFAFA;" width="5.059" height="5.797"/>
			<rect x="169.657" y="168.825" style="fill:#FAFAFA;" width="5.059" height="5.797"/>
			<rect x="169.657" y="178.552" style="fill:#FAFAFA;" width="5.059" height="5.797"/>
			<rect x="169.657" y="188.271" style="fill:#FAFAFA;" width="5.059" height="5.797"/>
			<rect x="169.657" y="197.998" style="fill:#FAFAFA;" width="5.059" height="5.797"/>
			<rect x="176.424" y="129.939" style="fill:#FAFAFA;" width="5.059" height="5.797"/>
			<rect x="176.424" y="139.659" style="fill:#FAFAFA;" width="5.059" height="5.797"/>
			<rect x="176.424" y="149.385" style="fill:#FAFAFA;" width="5.059" height="5.797"/>
			<rect x="176.424" y="159.105" style="fill:#FAFAFA;" width="5.059" height="5.797"/>
			<rect x="176.424" y="168.825" style="fill:#FAFAFA;" width="5.059" height="5.797"/>
			<rect x="176.424" y="178.552" style="fill:#FAFAFA;" width="5.059" height="5.797"/>
			<rect x="176.424" y="188.271" style="fill:#FAFAFA;" width="5.059" height="5.797"/>
			<rect x="176.424" y="197.998" style="fill:#FAFAFA;" width="5.059" height="5.797"/>
			<rect x="233.482" y="85.87" style="fill:#FAFAFA;" width="5.49" height="6.291"/>
			<rect x="233.482" y="96.418" style="fill:#FAFAFA;" width="5.49" height="6.291"/>
			<rect x="233.482" y="106.248" style="fill:#FAFAFA;" width="5.49" height="6.291"/>
			<rect x="233.482" y="116.796" style="fill:#FAFAFA;" width="5.49" height="6.291"/>
			<rect x="233.482" y="127.343" style="fill:#FAFAFA;" width="5.49" height="6.291"/>
			<rect x="233.482" y="137.898" style="fill:#FAFAFA;" width="5.49" height="6.291"/>
			<rect x="233.482" y="148.446" style="fill:#FAFAFA;" width="5.49" height="6.291"/>
			<rect x="233.482" y="159.001" style="fill:#FAFAFA;" width="5.49" height="6.291"/>
			<rect x="315.95" y="76.722" style="fill:#FAFAFA;" width="5.49" height="6.291"/>
			<rect x="315.95" y="87.27" style="fill:#FAFAFA;" width="5.49" height="6.291"/>
			<rect x="315.95" y="97.825" style="fill:#FAFAFA;" width="5.49" height="6.291"/>
			<rect x="315.95" y="108.373" style="fill:#FAFAFA;" width="5.49" height="6.291"/>
			<rect x="315.95" y="118.927" style="fill:#FAFAFA;" width="5.49" height="6.291"/>
			<rect x="315.95" y="129.475" style="fill:#FAFAFA;" width="5.49" height="6.291"/>
			<rect x="315.95" y="140.03" style="fill:#FAFAFA;" width="5.49" height="6.291"/>
			<rect x="315.95" y="150.578" style="fill:#FAFAFA;" width="5.49" height="6.291"/>
			<g>
				<rect x="327.71" y="125.191" style="fill:#E6E6E6;" width="33.065" height="99.474"/>
				<rect x="332.601" y="130.096" style="fill:#FAFAFA;" width="9.691" height="6.291"/>
				<rect x="332.601" y="140.65" style="fill:#FAFAFA;" width="9.691" height="6.291"/>
				<rect x="332.601" y="151.198" style="fill:#FAFAFA;" width="9.691" height="6.291"/>
				<rect x="332.601" y="161.753" style="fill:#FAFAFA;" width="9.691" height="6.291"/>
				<rect x="332.601" y="172.301" style="fill:#FAFAFA;" width="9.691" height="6.291"/>
				<rect x="332.601" y="182.849" style="fill:#FAFAFA;" width="9.691" height="6.291"/>
				<rect x="332.601" y="193.404" style="fill:#FAFAFA;" width="9.691" height="6.291"/>
				<rect x="332.601" y="203.952" style="fill:#FAFAFA;" width="9.691" height="6.291"/>
				<rect x="345.567" y="130.096" style="fill:#FAFAFA;" width="9.691" height="6.291"/>
				<rect x="345.567" y="140.65" style="fill:#FAFAFA;" width="9.691" height="6.291"/>
				<rect x="345.567" y="151.198" style="fill:#FAFAFA;" width="9.691" height="6.291"/>
				<rect x="345.567" y="161.753" style="fill:#FAFAFA;" width="9.691" height="6.291"/>
				<rect x="345.567" y="172.301" style="fill:#FAFAFA;" width="9.691" height="6.291"/>
				<rect x="345.567" y="182.849" style="fill:#FAFAFA;" width="9.691" height="6.291"/>
				<rect x="345.567" y="193.404" style="fill:#FAFAFA;" width="9.691" height="6.291"/>
				<rect x="345.567" y="203.952" style="fill:#FAFAFA;" width="9.691" height="6.291"/>
			</g>
			<path style="fill:#E0E0E0;" d="M309.68,224.628v-68.86h-14.422v68.853L309.68,224.628z"/>
			<rect x="296.352" y="158.555" style="fill:#FAFAFA;" width="1.749" height="4.689"/>
			<rect x="299.849" y="158.555" style="fill:#FAFAFA;" width="1.749" height="4.689"/>
			<rect x="303.34" y="158.555" style="fill:#FAFAFA;" width="1.749" height="4.689"/>
			<rect x="306.837" y="158.555" style="fill:#FAFAFA;" width="1.749" height="4.689"/>
			<rect x="296.352" y="166.421" style="fill:#FAFAFA;" width="1.749" height="4.689"/>
			<rect x="299.849" y="166.421" style="fill:#FAFAFA;" width="1.749" height="4.689"/>
			<rect x="303.34" y="166.421" style="fill:#FAFAFA;" width="1.749" height="4.689"/>
			<rect x="306.837" y="166.421" style="fill:#FAFAFA;" width="1.749" height="4.689"/>
			<rect x="296.352" y="174.287" style="fill:#FAFAFA;" width="1.749" height="4.689"/>
			<rect x="299.849" y="174.287" style="fill:#FAFAFA;" width="1.749" height="4.689"/>
			<rect x="303.34" y="174.287" style="fill:#FAFAFA;" width="1.749" height="4.689"/>
			<rect x="306.837" y="174.287" style="fill:#FAFAFA;" width="1.749" height="4.689"/>
			<rect x="296.352" y="182.152" style="fill:#FAFAFA;" width="1.749" height="4.689"/>
			<rect x="299.849" y="182.152" style="fill:#FAFAFA;" width="1.749" height="4.689"/>
			<rect x="303.34" y="182.152" style="fill:#FAFAFA;" width="1.749" height="4.689"/>
			<rect x="306.837" y="182.152" style="fill:#FAFAFA;" width="1.749" height="4.689"/>
			<rect x="296.352" y="190.025" style="fill:#FAFAFA;" width="1.749" height="4.689"/>
			<rect x="299.849" y="190.025" style="fill:#FAFAFA;" width="1.749" height="4.689"/>
			<rect x="303.34" y="190.025" style="fill:#FAFAFA;" width="1.749" height="4.689"/>
			<rect x="306.837" y="190.025" style="fill:#FAFAFA;" width="1.749" height="4.689"/>
			<rect x="296.352" y="197.891" style="fill:#FAFAFA;" width="1.749" height="4.689"/>
			<rect x="299.849" y="197.891" style="fill:#FAFAFA;" width="1.749" height="4.689"/>
			<rect x="303.34" y="197.891" style="fill:#FAFAFA;" width="1.749" height="4.689"/>
			<rect x="306.837" y="197.891" style="fill:#FAFAFA;" width="1.749" height="4.689"/>
			<rect x="296.352" y="205.757" style="fill:#FAFAFA;" width="1.749" height="4.689"/>
			<rect x="299.849" y="205.757" style="fill:#FAFAFA;" width="1.749" height="4.689"/>
			<rect x="303.34" y="205.757" style="fill:#FAFAFA;" width="1.749" height="4.689"/>
			<rect x="306.837" y="205.757" style="fill:#FAFAFA;" width="1.749" height="4.689"/>
			<rect x="296.352" y="213.622" style="fill:#FAFAFA;" width="1.749" height="4.689"/>
			<rect x="299.849" y="213.622" style="fill:#FAFAFA;" width="1.749" height="4.689"/>
			<rect x="303.34" y="213.622" style="fill:#FAFAFA;" width="1.749" height="4.689"/>
			<rect x="306.837" y="213.622" style="fill:#FAFAFA;" width="1.749" height="4.689"/>
			<rect x="132.239" y="171.159" style="fill:#E6E6E6;" width="4.675" height="3.936"/>
			<rect x="141.589" y="171.159" style="fill:#E6E6E6;" width="4.675" height="3.936"/>
			<rect x="150.931" y="171.159" style="fill:#E6E6E6;" width="4.675" height="3.936"/>
			<rect x="160.281" y="171.159" style="fill:#E6E6E6;" width="4.675" height="3.936"/>
			<rect x="132.239" y="177.756" style="fill:#E6E6E6;" width="4.675" height="3.936"/>
			<rect x="141.589" y="177.756" style="fill:#E6E6E6;" width="4.675" height="3.936"/>
			<rect x="150.931" y="177.756" style="fill:#E6E6E6;" width="4.675" height="3.936"/>
			<rect x="160.281" y="177.756" style="fill:#E6E6E6;" width="4.675" height="3.936"/>
			<rect x="132.239" y="184.354" style="fill:#E6E6E6;" width="4.675" height="3.936"/>
			<rect x="141.589" y="184.354" style="fill:#E6E6E6;" width="4.675" height="3.936"/>
			<rect x="150.931" y="184.354" style="fill:#E6E6E6;" width="4.675" height="3.936"/>
			<rect x="160.281" y="184.354" style="fill:#E6E6E6;" width="4.675" height="3.936"/>
			<rect x="132.239" y="190.952" style="fill:#E6E6E6;" width="4.675" height="3.936"/>
			<rect x="141.589" y="190.952" style="fill:#E6E6E6;" width="4.675" height="3.936"/>
			<rect x="150.931" y="190.952" style="fill:#E6E6E6;" width="4.675" height="3.936"/>
			<rect x="160.281" y="190.952" style="fill:#E6E6E6;" width="4.675" height="3.936"/>
			<rect x="132.239" y="197.542" style="fill:#E6E6E6;" width="4.675" height="3.936"/>
			<rect x="141.589" y="197.542" style="fill:#E6E6E6;" width="4.675" height="3.936"/>
			<rect x="150.931" y="197.542" style="fill:#E6E6E6;" width="4.675" height="3.936"/>
			<rect x="160.281" y="197.542" style="fill:#E6E6E6;" width="4.675" height="3.936"/>
			<rect x="132.239" y="204.14" style="fill:#E6E6E6;" width="4.675" height="3.936"/>
			<rect x="141.589" y="204.14" style="fill:#E6E6E6;" width="4.675" height="3.936"/>
			<rect x="150.931" y="204.14" style="fill:#E6E6E6;" width="4.675" height="3.936"/>
			<rect x="160.281" y="204.14" style="fill:#E6E6E6;" width="4.675" height="3.936"/>
			<rect x="132.239" y="210.738" style="fill:#E6E6E6;" width="4.675" height="3.936"/>
			<rect x="141.589" y="210.738" style="fill:#E6E6E6;" width="4.675" height="3.936"/>
			<rect x="150.931" y="210.738" style="fill:#E6E6E6;" width="4.675" height="3.936"/>
			<rect x="160.281" y="210.738" style="fill:#E6E6E6;" width="4.675" height="3.936"/>
		</g>
		<g>
			<g>
				<path style="fill:#E0E0E0;" d="M102.023,225.04c40.548,0,81.096,0,121.644,0c40.341,0,80.682,0,121.024,0
					c22.757,0,45.513,0,68.27,0c0.483,0,0.483-0.75,0-0.75c-40.548,0-81.096,0-121.644,0c-40.341,0-80.682,0-121.024,0
					c-22.757,0-45.513,0-68.27,0C101.54,224.29,101.539,225.04,102.023,225.04L102.023,225.04z"/>
			</g>
		</g>
	</g>
	<g>
		<g>
			<g>
				<g>
					<g>
						<path style="fill:#E0E0E0;" d="M443.92,287.897H263.174c-3.232,0-5.862-2.225-5.862-4.961V60.16c0-2.735,2.63-4.96,5.862-4.96
							H443.92c3.232,0,5.862,2.225,5.862,4.96v222.776C449.783,285.672,447.153,287.897,443.92,287.897z M263.174,55.411
							c-3.095,0-5.612,2.13-5.612,4.749v222.776c0,2.619,2.518,4.749,5.612,4.749H443.92c3.095,0,5.612-2.13,5.612-4.749V60.16
							c0-2.618-2.518-4.749-5.612-4.749H263.174z"/>
					</g>
				</g>
				<g>
					<g>
						<path style="fill:#E0E0E0;" d="M235.493,287.897H54.746c-3.232,0-5.862-2.225-5.862-4.961V60.16
							c0-2.735,2.629-4.96,5.862-4.96h180.747c3.232,0,5.862,2.225,5.862,4.96v222.776
							C241.355,285.672,238.725,287.897,235.493,287.897z M54.746,55.411c-3.094,0-5.612,2.13-5.612,4.749v222.776
							c0,2.619,2.518,4.749,5.612,4.749h180.747c3.095,0,5.612-2.13,5.612-4.749V60.16c0-2.618-2.518-4.749-5.612-4.749H54.746z"/>
					</g>
				</g>
			</g>
			<g>
				<g>
					<rect x="0" y="339.573" style="fill:#E0E0E0;" width="500" height="0.212"/>
				</g>
			</g>
		</g>
		<rect x="51.672" y="351.643" style="fill:#E0E0E0;" width="16.06" height="0.212"/>
		<rect x="170.352" y="349.35" style="fill:#E0E0E0;" width="53.53" height="0.212"/>
		<rect x="68.732" y="359.504" style="fill:#E0E0E0;" width="36.25" height="0.212"/>
		<rect x="378.352" y="349.24" style="fill:#E0E0E0;" width="43.19" height="0.212"/>
		<rect x="430.452" y="349.24" style="fill:#E0E0E0;" width="6.33" height="0.212"/>
		<rect x="316.212" y="354.512" style="fill:#E0E0E0;" width="53.89" height="0.212"/>
	</g>
	<g>
		<g>
			<path style="fill:#F0F0F0;" d="M422.922,32.612c-1.796-1.357-4.416-1.51-6.358-0.373c-2.578-5.209-9.761-7.508-14.885-4.764
				c-1.337-5.613-6.867-9.928-12.637-9.859c-5.77,0.069-11.195,4.516-12.396,10.16c-0.191,0.897-0.317,1.879-0.959,2.535
				c-1.042,1.065-2.782,0.707-4.267,0.591c-4.673-0.365-9.374,2.916-10.645,7.427l64.349-0.234
				C425.688,35.917,424.718,33.968,422.922,32.612z"/>
		</g>
	</g>
	<g>
		<g>
			<path style="fill:#F0F0F0;" d="M92.118,162.788c-1.796-1.357-4.416-1.51-6.358-0.373c-2.578-5.209-9.761-7.508-14.885-4.764
				c-1.337-5.613-6.867-9.928-12.637-9.858c-5.77,0.069-11.195,4.516-12.396,10.16c-0.191,0.897-0.317,1.88-0.959,2.535
				c-1.042,1.064-2.782,0.707-4.267,0.591c-4.673-0.365-9.374,2.916-10.645,7.427l64.349-0.234
				C94.884,166.093,93.914,164.145,92.118,162.788z"/>
		</g>
	</g>
	<g>
		<g>
			<path style="fill:#F0F0F0;" d="M466.15,114.848c-1.289-0.974-3.17-1.084-4.564-0.268c-1.85-3.739-7.007-5.389-10.684-3.419
				c-0.959-4.029-4.929-7.126-9.07-7.076c-4.142,0.05-8.036,3.241-8.898,7.292c-0.137,0.644-0.228,1.349-0.688,1.819
				c-0.748,0.764-1.997,0.508-3.063,0.424c-3.354-0.262-6.729,2.093-7.641,5.331l46.188-0.168
				C468.135,117.22,467.439,115.822,466.15,114.848z"/>
		</g>
	</g>
	<g>
		<g>
			<path style="fill:#F0F0F0;" d="M45.906,73.267c-0.778-0.588-1.913-0.654-2.754-0.161c-1.117-2.257-4.229-3.253-6.449-2.064
				c-0.579-2.432-2.975-4.301-5.475-4.271c-2.5,0.03-4.85,1.956-5.37,4.401c-0.083,0.389-0.137,0.814-0.415,1.098
				c-0.451,0.461-1.205,0.306-1.849,0.256c-2.024-0.158-4.061,1.263-4.612,3.218l27.878-0.101
				C47.104,74.699,46.684,73.854,45.906,73.267z"/>
		</g>
	</g>
	<g>
		<g>
			<path style="fill:#F0F0F0;" d="M252.924,36.611c-0.778-0.588-1.913-0.654-2.755-0.162c-1.117-2.257-4.229-3.253-6.449-2.064
				c-0.579-2.432-2.975-4.301-5.475-4.271c-2.5,0.03-4.85,1.956-5.37,4.402c-0.083,0.389-0.137,0.814-0.415,1.098
				c-0.452,0.461-1.205,0.306-1.849,0.256c-2.024-0.158-4.061,1.263-4.612,3.218l27.878-0.101
				C254.123,38.042,253.702,37.198,252.924,36.611z"/>
		</g>
	</g>
	<g>
		<g>
			<path style="fill:#F5F5F5;" d="M477.769,70.273c-0.778-0.588-1.913-0.654-2.754-0.161c-1.117-2.257-4.229-3.253-6.449-2.064
				c-0.579-2.432-2.975-4.301-5.475-4.271c-2.5,0.03-4.85,1.957-5.37,4.402c-0.083,0.389-0.137,0.814-0.415,1.098
				c-0.451,0.461-1.205,0.306-1.849,0.256c-2.024-0.158-4.061,1.263-4.612,3.218l27.878-0.101
				C478.968,71.705,478.547,70.861,477.769,70.273z"/>
		</g>
	</g>
	<g>
		<g>
			<path style="fill:#F0F0F0;" d="M106.501,33.558c-1.732-1.308-4.259-1.457-6.132-0.36c-2.486-5.024-9.415-7.241-14.356-4.594
				c-1.289-5.414-6.623-9.575-12.188-9.508c-5.565,0.067-10.797,4.355-11.956,9.799c-0.184,0.865-0.306,1.813-0.925,2.445
				c-1.005,1.027-2.683,0.682-4.116,0.57c-4.507-0.352-9.041,2.812-10.267,7.163l62.062-0.226
				C109.168,36.746,108.233,34.867,106.501,33.558z"/>
		</g>
	</g>
</g>
<g id="Background_simple" style="display:none;">
	<g style="display:inline;">
		<path style="fill:#407BFF;" d="M164.706,34.261c-28.196,2.003-55.385,6.268-79.499,12.958
			c-28.421,7.885-57.461,20.169-48.883,36.236c15.835,29.662,91.797,30.202,76.63,50.146c-17.18,22.591-5.659,49.091,71.43,56.46
			c146.42,13.997,323.419-67.9,273.707-112.901C427.142,49.144,314.419,23.624,164.706,34.261z"/>
		<path style="opacity:0.9;fill:#FFFFFF;" d="M164.706,34.261c-28.196,2.003-55.385,6.268-79.499,12.958
			c-28.421,7.885-57.461,20.169-48.883,36.236c15.835,29.662,91.797,30.202,76.63,50.146c-17.18,22.591-5.659,49.091,71.43,56.46
			c146.42,13.997,323.419-67.9,273.707-112.901C427.142,49.144,314.419,23.624,164.706,34.261z"/>
	</g>
</g>
<g id="Shadow">
	<g>
		<g>
			<path style="fill:#F5F5F5;" d="M482.736,341.677c0,3.387-100.275,6.132-223.971,6.132s-223.971-2.745-223.971-6.132
				c0-3.387,100.275-6.132,223.971-6.132S482.736,338.29,482.736,341.677z"/>
		</g>
	</g>
</g>
<g id="Car_3">
	<g>
		<ellipse style="opacity:0.3;" cx="340.604" cy="342.786" rx="39.715" ry="7.618"/>
		<g>
			<path style="fill:#263238;" d="M304.135,347.139h-5.968c-2.137,0-3.869-1.732-3.869-3.869v-16.741h13.705v16.741
				C308.004,345.407,306.272,347.139,304.135,347.139z"/>
			<path style="fill:#263238;" d="M371.837,347.139h5.968c2.137,0,3.869-1.732,3.869-3.869v-16.741h-13.705v16.741
				C367.968,345.407,369.7,347.139,371.837,347.139z"/>
			<g>
				<path style="fill:#407BFF;" d="M371.804,294.921c0,0,1.226-1.488,2.249-1.897c1.024-0.41,3.958-0.341,5.118,0
					c1.16,0.341,4.641,3.822,4.163,4.913c-0.478,1.092-2.32,2.73-3.276,2.866s-3.313,0-3.313,0l-5.9-4.299L371.804,294.921z"/>
				<path style="opacity:0.4;fill:#FFFFFF;" d="M372.563,295.19c0,0,1.051-1.275,1.928-1.626c0.878-0.351,3.393-0.293,4.387,0
					c0.994,0.292,3.978,3.276,3.568,4.212c-0.409,0.936-1.989,2.34-2.808,2.457c-0.819,0.117-2.84,0-2.84,0l-5.057-3.685
					L372.563,295.19z"/>
			</g>
			<g>
				<path style="fill:#407BFF;" d="M304.168,294.921c0,0-1.226-1.488-2.249-1.897c-1.024-0.41-3.958-0.341-5.118,0
					c-1.16,0.341-4.64,3.822-4.163,4.913c0.478,1.092,2.32,2.73,3.276,2.866c0.955,0.137,3.313,0,3.313,0l5.9-4.299L304.168,294.921
					z"/>
				<path style="opacity:0.4;fill:#FFFFFF;" d="M303.409,295.19c0,0-1.051-1.275-1.928-1.626c-0.878-0.351-3.393-0.293-4.387,0
					c-0.994,0.292-3.978,3.276-3.568,4.212c0.409,0.936,1.989,2.34,2.808,2.457c0.819,0.117,2.84,0,2.84,0l5.057-3.685
					L303.409,295.19z"/>
			</g>
			<path style="fill:#407BFF;" d="M376.148,300.184c-1.263-0.632-4.105-4.736-4.105-4.736l-7.044-12.592
				c-1.256-2.246-3.57-3.696-6.139-3.849l-20.83-0.282v-0.001l-0.043,0.001l-0.043-0.001v0.001l-20.83,0.282
				c-2.569,0.152-4.882,1.603-6.139,3.849l-7.044,12.592c0,0-2.842,4.105-4.105,4.736c-1.263,0.632-5.526,10.262-5.526,10.262
				v25.453l11.81-0.018l31.833,0.018v0h0.043h0.043v0l31.833-0.018l11.81,0.018v-25.453
				C381.673,310.445,377.411,300.815,376.148,300.184z"/>
			<path style="opacity:0.3;" d="M302.815,335.898v-3.228c0-1.011,0.82-1.831,1.831-1.831h9.152c1.011,0,1.831,0.82,1.831,1.831
				v3.228H302.815z"/>
			<g>
				<path style="fill:#263238;" d="M338.029,297.848c-9.151,0.285-20.071,0.285-29.255,0.158l-1.125-0.017
					c-0.323,0.021-0.907-0.025-1.069-0.51c-0.108-0.466,0.149-0.821,0.353-1.132c0.669-0.922,1.578-1.623,2.453-2.331
					c-0.827,0.747-1.692,1.493-2.3,2.432c-1.004,1.634,0.703,1.211,1.697,1.242l2.251-0.034
					C319.397,297.579,329.713,297.577,338.029,297.848L338.029,297.848z"/>
			</g>
			<g>
				<path style="fill:#263238;" d="M308.44,297.848c0.458,4.452,0.418,9.117,1.73,13.406c1.159,2.234,2.848,4.865,5.546,5.214
					c3.559,0.114,7.241,0.044,10.856,0.104c3.631,0.034,7.261,0.1,10.892,0.192c-5.236,0.145-11.068,0.203-16.338,0.227
					c-1.654-0.033-3.83,0.09-5.477-0.029c-2.892-0.398-4.664-3.138-5.876-5.54C308.474,307.043,308.684,302.365,308.44,297.848
					L308.44,297.848z"/>
			</g>
			<path style="fill:#263238;" d="M309.27,334.409c0,1.189-0.964,2.154-2.153,2.154c-1.189,0-2.154-0.964-2.154-2.154
				s0.964-2.154,2.154-2.154C308.305,332.256,309.27,333.22,309.27,334.409z"/>
			<path style="fill:#263238;" d="M314.19,334.409c0,1.189-0.964,2.154-2.153,2.154c-1.189,0-2.154-0.964-2.154-2.154
				s0.964-2.154,2.154-2.154C313.226,332.256,314.19,333.22,314.19,334.409z"/>
			<circle style="opacity:0.3;fill:#FFFFFF;" cx="307.116" cy="334.409" r="1.921"/>
			<circle style="opacity:0.3;fill:#FFFFFF;" cx="312.037" cy="334.409" r="1.921"/>
			<path style="fill:#263238;" d="M361.928,283.03c-0.225-0.075-17.578-0.022-22.617-0.005c-5.529-0.017-24.567-0.07-24.814,0.005
				c-0.289,0.088-5.111,10.986-5.111,10.986h28.556h2.869h25.774C366.586,294.016,362.191,283.118,361.928,283.03z"/>
			<path style="opacity:0.3;" d="M298.462,310.259c0.506-0.033,1.406,2.686,6.501,2.48c5.221-0.211,9.1,0.233,10.667-1.043
				s6.277-6.618,6.277-6.618L298.462,310.259z"/>
			<path style="opacity:0.3;" d="M376.919,310.259c-0.506-0.033-1.406,2.686-6.501,2.48c-5.221-0.211-9.099,0.233-10.667-1.043
				c-1.567-1.276-6.277-6.618-6.277-6.618L376.919,310.259z"/>
			<path style="fill:#FFFFFF;" d="M299.735,303.304c0,0-2.143,2.272-1.848,3.87c0.296,1.599,0.37,3.964,1.478,4.111
				c1.109,0.148,14.042-0.222,15.225-0.739c1.182-0.517,7.391-4.286,7.317-5.469c-0.074-1.182-1.256-1.774-1.256-1.774H299.735z"/>
			<g>
				<path style="fill:#263238;" d="M337.943,297.848c8.3-0.27,18.645-0.268,26.995-0.192l2.251,0.034
					c0.982-0.031,2.706,0.394,1.697-1.242c-0.608-0.939-1.473-1.685-2.3-2.432c0.875,0.708,1.783,1.409,2.453,2.331
					c0.203,0.31,0.46,0.665,0.352,1.132c-0.162,0.485-0.746,0.531-1.069,0.51l-1.125,0.017
					C358.005,298.132,347.104,298.133,337.943,297.848L337.943,297.848z"/>
			</g>
			<g>
				<path style="fill:#263238;" d="M367.532,297.848c-0.244,4.517-0.034,9.195-1.332,13.575c-1.21,2.401-2.984,5.142-5.876,5.54
					c-1.639,0.121-3.834,0-5.477,0.03c-5.274-0.026-11.093-0.083-16.338-0.228c3.631-0.092,7.261-0.159,10.892-0.192
					c3.615-0.061,7.297,0.009,10.856-0.104c2.698-0.349,4.387-2.98,5.546-5.214C367.115,306.964,367.074,302.3,367.532,297.848
					L367.532,297.848z"/>
			</g>
			<polygon style="opacity:0.3;" points="369.309,326.529 368.467,326.529 337.463,326.529 337.442,326.529 307.505,326.529 
				306.663,326.529 298.859,326.529 298.859,328.56 306.663,328.56 307.084,327.544 337.943,327.544 338.029,327.544 
				368.888,327.544 369.309,328.56 377.113,328.56 377.113,326.529 			"/>
			<g>
				<path style="opacity:0.3;" d="M317.048,294.016v-1.693c0-1.893,1.534-3.427,3.427-3.427h4.046c1.892,0,3.427,1.534,3.427,3.427
					v1.693H317.048z"/>
				<g style="opacity:0.3;">
					<path d="M342.973,284.809c0,0-0.345,2.327-1.206,2.585c-0.862,0.258-10.168,0-10.168,0l-1.292-2.585H342.973z"/>
					
						<rect x="334.959" y="282.991" transform="matrix(-1 -1.224647e-16 1.224647e-16 -1 673.9682 568.2312)" width="4.05" height="2.249"/>
				</g>
				<path style="opacity:0.3;" d="M358.924,294.016v-1.693c0-1.893-1.534-3.427-3.427-3.427h-4.046
					c-1.892,0-3.427,1.534-3.427,3.427v1.693H358.924z"/>
			</g>
			<path style="fill:#FFFFFF;" d="M375.644,302.962c0,0,2.143,2.272,1.848,3.87c-0.296,1.599-0.37,3.964-1.478,4.111
				c-1.109,0.148-14.042-0.222-15.225-0.739c-1.182-0.517-7.391-4.286-7.317-5.469c0.074-1.183,1.256-1.774,1.256-1.774H375.644z"/>
			<path style="opacity:0.3;" d="M340.604,304.061c0,1.309-1.061,2.37-2.37,2.37c-1.309,0-2.37-1.061-2.37-2.37
				c0-1.309,1.061-2.37,2.37-2.37C339.543,301.692,340.604,302.753,340.604,304.061z"/>
			<g>
				<path style="fill:#263238;" d="M294.641,319.372c27.734-0.306,58.848-0.308,86.582,0
					C353.49,319.681,322.375,319.678,294.641,319.372L294.641,319.372z"/>
			</g>
			<path style="opacity:0.4;fill:#FFFFFF;" d="M294.874,295.332c0.049-0.053,5.039,4.362,5.039,4.362l1.405-1.024l-5.277-4.441
				L294.874,295.332z"/>
			<polygon style="opacity:0.4;fill:#FFFFFF;" points="296.507,293.879 301.824,298.231 302.304,297.637 297.094,293.564 			"/>
			<path style="opacity:0.4;fill:#FFFFFF;" d="M380.997,295.219c-0.049-0.053-5.039,4.362-5.039,4.362l-1.405-1.024l5.268-4.41
				C380.147,294.383,380.563,294.784,380.997,295.219z"/>
			<path style="opacity:0.4;fill:#FFFFFF;" d="M379.364,293.81l-5.318,4.308l-0.479-0.594l5.126-4.008
				C378.923,293.562,379.145,293.675,379.364,293.81z"/>
			<path style="opacity:0.3;fill:#FFFFFF;" d="M333.606,283.766c0,0,7.849,7.242,10.182,8.841c0.29,0.199,0.633,0.3,0.984,0.3
				h18.654c0.75,0,1.272-0.744,1.012-1.448c-0.972-2.631-2.886-7.624-3.538-7.693C359.502,283.618,333.606,283.766,333.606,283.766z
				"/>
			<path style="opacity:0.3;" d="M317.048,316.765c0,0,11.737,1.422,21.461,1.163c11.526-0.307,22.122-0.955,20.799-1.022
				C358.895,316.885,317.048,316.765,317.048,316.765z"/>
			<path style="opacity:0.3;" d="M315.178,297.787c0,0,11.737,1.422,21.461,1.163c11.526-0.307,22.122-0.955,20.799-1.022
				C357.026,297.907,315.178,297.787,315.178,297.787z"/>
			<g>
				<path style="fill:#263238;" d="M347.023,325.142h-17.578c-0.713,0-1.292-0.578-1.292-1.292v-2.309
					c0-0.713,0.578-1.292,1.292-1.292h17.578c0.713,0,1.292,0.578,1.292,1.292v2.308
					C348.314,324.564,347.736,325.142,347.023,325.142z"/>
				<path style="opacity:0.4;fill:#FFFFFF;" d="M347.023,325.142h-17.578c-0.713,0-1.292-0.578-1.292-1.292v-2.309
					c0-0.713,0.578-1.292,1.292-1.292h17.578c0.713,0,1.292,0.578,1.292,1.292v2.308
					C348.314,324.564,347.736,325.142,347.023,325.142z"/>
			</g>
			<path style="fill:none;stroke:#FFFFFF;stroke-width:0.25;stroke-linecap:round;stroke-linejoin:round;stroke-miterlimit:10;" d="
				M324.895,279.596c0.402,0,0.803,0,1.205,0"/>
			<path style="fill:none;stroke:#FFFFFF;stroke-width:0.25;stroke-linecap:round;stroke-linejoin:round;stroke-miterlimit:10;" d="
				M327.176,279.596c2.973,0,5.946,0,8.919,0"/>
			<path style="fill:none;stroke:#FFFFFF;stroke-width:0.25;stroke-linecap:round;stroke-linejoin:round;stroke-miterlimit:10;" d="
				M329.895,296.803c2.973,0,5.946,0,8.919,0"/>
		</g>
	</g>
</g>
<g id="Car_2_00000081635818203533369160000015015760767000333700_">
	<g>
		<ellipse style="opacity:0.3;" cx="146.667" cy="441.334" rx="58.407" ry="11.203"/>
		<g>
			<path style="fill:#263238;" d="M203.906,393.411c0,0,0.131-11.121-0.786-14.655c-0.917-3.533-6.68-9.684-7.99-11.123
				c-1.31-1.439-11.395-17.666-14.277-19.367c-2.847-1.681-14.1-3.743-34.537-4.045v-0.011c-0.125,0.002-0.246,0.004-0.371,0.006
				c-0.125-0.002-0.245-0.004-0.371-0.006v0.011c-20.438,0.302-31.69,2.365-34.537,4.045c-2.882,1.701-12.967,17.928-14.277,19.367
				c-1.31,1.44-7.073,7.59-7.99,11.123s-0.786,14.655-0.786,14.655s-2.62,7.461-2.535,9.424c0.085,1.963,0.001,14.134,0.001,14.134
				h60.123h0.742h60.123c0,0-0.084-12.171,0.001-14.134C206.525,400.872,203.906,393.411,203.906,393.411z"/>
			<path style="opacity:0.7;fill:#FFFFFF;" d="M203.906,393.411c0,0,0.131-11.121-0.786-14.655c-0.917-3.533-6.68-9.684-7.99-11.123
				c-1.31-1.439-11.395-17.666-14.277-19.367c-2.847-1.681-14.1-3.743-34.537-4.045v-0.011c-0.125,0.002-0.246,0.004-0.371,0.006
				c-0.125-0.002-0.245-0.004-0.371-0.006v0.011c-20.438,0.302-31.69,2.365-34.537,4.045c-2.882,1.701-12.967,17.928-14.277,19.367
				c-1.31,1.44-7.073,7.59-7.99,11.123s-0.786,14.655-0.786,14.655s-2.62,7.461-2.535,9.424c0.085,1.963,0.001,14.134,0.001,14.134
				h60.123h0.742h60.123c0,0-0.084-12.171,0.001-14.134C206.525,400.872,203.906,393.411,203.906,393.411z"/>
			<path style="fill:#263238;" d="M191.252,451.583h11.351c2.119,0,3.836-1.718,3.836-3.836v-16.86h-19.023v16.86
				C187.416,449.866,189.133,451.583,191.252,451.583z"/>
			<path style="fill:#263238;" d="M206.439,431.7c0.063,0.3-2.486,5.842-20.928,5.842c-18.442,0-27.246-2.547-39.937-2.921v-21.945
				h51.782l2.699,4.194h6.384V431.7z"/>
			<path style="opacity:0.2;" d="M206.439,431.7c0.063,0.3-2.486,5.842-20.928,5.842c-18.442,0-27.246-2.547-39.937-2.921v-21.945
				h51.782l2.699,4.194h6.384V431.7z"/>
			<path style="fill:#407BFF;" d="M184.366,421.868h11.66c0.562,0,1.017-0.455,1.017-1.017v-0.163c0-0.562-0.455-1.017-1.017-1.017
				h-11.66c-0.562,0-1.017,0.455-1.017,1.017v0.163C183.349,421.413,183.805,421.868,184.366,421.868z"/>
			<path style="fill:#263238;" d="M178.631,347.277c0,0-0.144-2.418-1.727-3.167c-0.375-0.177-2.987-0.184-4.248-0.176
				c-0.376,0.002-0.679,0.308-0.679,0.684v1.023L178.631,347.277z"/>
			<path style="fill:#407BFF;" d="M154.463,347.99c-0.009,0-0.095,0-0.246,0c-2.199,0-18.37,0-18.37,0s0.147-0.883,1.867-1.129
				c1.719-0.245,13.95-0.147,14.687,0c0.737,0.147,2.07,0.589,1.968,1.129"/>
			<path style="fill:#407BFF;" d="M140.617,384.311c0,1.096,2.551,1.985,5.699,1.985c3.147,0,5.699-0.889,5.699-1.985
				c0-1.096-2.551-1.985-5.699-1.985C143.169,382.327,140.617,383.215,140.617,384.311z"/>
			<path style="fill:#263238;" d="M100.837,451.682H89.089c-2.009,0-3.638-1.629-3.638-3.638v-17.059h19.023v17.059
				C104.475,450.053,102.846,451.682,100.837,451.682z"/>
			<path style="fill:#263238;" d="M85.451,431.798c-0.063,0.299,2.486,5.842,20.928,5.842c18.442,0,27.246-2.547,39.937-2.921
				v-21.946H94.534l-2.699,4.194h-6.384V431.798z"/>
			<path style="opacity:0.2;" d="M85.451,431.798c-0.063,0.299,2.486,5.842,20.928,5.842c18.442,0,27.246-2.547,39.937-2.921
				v-21.946H94.534l-2.699,4.194h-6.384V431.798z"/>
			<ellipse cx="106.214" cy="431.361" rx="3.394" ry="3.391"/>
			<path style="fill:#407BFF;" d="M107.524,421.967h-11.66c-0.562,0-1.017-0.455-1.017-1.017v-0.163
				c0-0.562,0.455-1.017,1.017-1.017h11.66c0.562,0,1.017,0.455,1.017,1.017v0.163C108.541,421.512,108.086,421.967,107.524,421.967
				z"/>
			<path style="fill:#407BFF;" d="M198.39,421.967h-11.66c-0.562,0-1.017-0.455-1.017-1.017v-0.163c0-0.562,0.455-1.017,1.017-1.017
				h11.66c0.562,0,1.017,0.455,1.017,1.017v0.163C199.407,421.512,198.951,421.967,198.39,421.967z"/>
			<path style="fill:#263238;" d="M113.259,347.376c0,0,0.144-2.418,1.728-3.167c0.375-0.177,2.987-0.184,4.248-0.176
				c0.376,0.002,0.679,0.308,0.679,0.684v1.023L113.259,347.376z"/>
			<path style="fill:#407BFF;" d="M191.17,361.778l-7.758-10.966l-36.123-1.477c-1.142-0.047-2.286-0.045-3.429,0.006l-35.382,1.569
				l-7.758,10.966c0,0-1.514,4.315,0,5.207c1.514,0.893,30.218,6.049,45.595,5.653v-0.084c15.54,0.22,43.364-4.789,44.854-5.667
				C192.684,366.093,191.17,361.778,191.17,361.778z"/>
			<path style="opacity:0.7;fill:#FFFFFF;" d="M203.74,404.581c-1.171-1.609-2.781-2.413-2.781-2.413h-54.642h-0.742H90.932
				c0,0-1.61,0.804-2.781,2.413c-1.171,1.609,0,2.011,0,2.011h57.424h0.742h57.424C203.74,406.592,204.91,406.19,203.74,404.581z"/>
			
				<rect x="130.328" y="418.109" transform="matrix(-1 -1.224647e-16 1.224647e-16 -1 289.8137 844.9649)" style="fill:#FFFFFF;" width="29.158" height="8.747"/>
			<g>
				<path style="fill:#263238;" d="M191.95,385.629c1.11,10.474-1.043,21.331-6.04,30.601c0.374-1.062,0.946-2.624,1.301-3.713
					C190.166,403.852,191.675,394.776,191.95,385.629L191.95,385.629z"/>
			</g>
			<g>
				<path style="fill:#263238;" d="M99.941,385.728c0.273,9.805,2.052,19.518,5.371,28.749c0.233,0.612,0.455,1.23,0.669,1.852
					C100.984,407.058,98.831,396.202,99.941,385.728L99.941,385.728z"/>
			</g>
			<g>
				<path style="fill:#263238;" d="M109.927,376.648c23.021,1.763,46.193,1.897,69.228,0.268c0,0,4.613-0.326,4.613-0.326
					C159.314,379.861,134.385,379.892,109.927,376.648L109.927,376.648z"/>
			</g>
			<path style="fill:#263238;" d="M191.17,361.778c-2.611-4.043-5.201-7.763-7.758-10.966l-36.123-1.477
				c-1.142-0.047-2.286-0.045-3.429,0.006l-35.382,1.569c-2.832,3.552-5.426,7.204-7.758,10.966c0,0-1.514,4.315,0,5.207
				c1.514,0.893,30.218,6.049,45.595,5.653v-0.084c15.54,0.22,43.364-4.789,44.854-5.667
				C192.684,366.093,191.17,361.778,191.17,361.778z"/>
			<path style="fill:#FFFFFF;" d="M203.74,384.218c-0.902,0.153-1.171,2.7-5.599,2.164c-4.428-0.536-15.835-1.961-17.177-4.064
				c-1.342-2.103-3.489-5.321,0-6.259c3.489-0.939,19.617-2.029,19.617-2.029c1.365,1.87,2.308,3.761,2.75,5.678L203.74,384.218z"/>
			<path style="fill:#FFFFFF;" d="M88.151,384.317c0.902,0.153,1.171,2.7,5.599,2.164c4.428-0.536,15.835-1.961,17.177-4.064
				c1.342-2.103,3.489-5.321,0-6.259c-3.489-0.939-19.617-2.029-19.617-2.029c-1.669,1.626-2.631,3.503-2.749,5.678L88.151,384.317z
				"/>
			<g>
				<path style="opacity:0.3;" d="M112.185,368.25v-2.7c0-3.018,2.449-5.465,5.47-5.465h6.459c3.021,0,5.47,2.447,5.47,5.465v2.7
					H112.185z"/>
				<g style="opacity:0.3;">
					<path d="M153.571,353.566c0,0-0.55,3.711-1.926,4.123c-1.376,0.412-16.232,0-16.232,0l-2.063-4.123H153.571z"/>
					
						<rect x="140.778" y="350.666" transform="matrix(-1 -1.224647e-16 1.224647e-16 -1 288.0211 704.919)" width="6.465" height="3.587"/>
				</g>
				<path style="opacity:0.3;" d="M179.035,368.25v-2.7c0-3.018-2.449-5.465-5.47-5.465h-6.46c-3.021,0-5.47,2.447-5.47,5.465v2.7
					H179.035z"/>
			</g>
			<path style="opacity:0.3;fill:#FFFFFF;" d="M138.618,351.902c0,0,12.529,11.55,16.255,14.1c0.463,0.317,1.01,0.478,1.571,0.478
				l31.501-0.004c1.197,0,2.03-1.187,1.615-2.309c-1.552-4.196-7.775-12.206-8.816-12.317
				C178.512,351.614,138.618,351.902,138.618,351.902z"/>
			<path style="opacity:0.3;" d="M108.439,368.793l3.746-0.543h66.849h6.191c0,0-26.559,4.509-40.07,4.509
				C129.049,372.759,108.439,368.793,108.439,368.793z"/>
		</g>
	</g>
</g>
<g id="Car_1_00000157991513413049493190000008249419509365665411_">
	<ellipse style="opacity:0.3;" cx="179.461" cy="268.251" rx="21.307" ry="3.259"/>
	<g>
		<g>
			<g>
				<path style="fill:#263238;" d="M161.219,241.819c0,0-0.653-0.793-1.198-1.011c-0.545-0.218-2.109-0.182-2.727,0
					c-0.618,0.182-2.472,2.036-2.218,2.618c0.254,0.582,1.236,1.454,1.745,1.527c0.509,0.073,1.765,0,1.765,0l3.143-2.29
					L161.219,241.819z"/>
				<path style="opacity:0.7;fill:#FFFFFF;" d="M161.219,241.819c0,0-0.653-0.793-1.198-1.011c-0.545-0.218-2.109-0.182-2.727,0
					c-0.618,0.182-2.472,2.036-2.218,2.618c0.254,0.582,1.236,1.454,1.745,1.527c0.509,0.073,1.765,0,1.765,0l3.143-2.29
					L161.219,241.819z"/>
				<path style="opacity:0.4;fill:#FFFFFF;" d="M160.815,241.962c0,0-0.56-0.679-1.027-0.866c-0.468-0.187-1.808-0.156-2.337,0
					c-0.53,0.156-2.119,1.745-1.901,2.244c0.218,0.499,1.06,1.247,1.496,1.309c0.436,0.062,1.513,0,1.513,0l2.694-1.963
					L160.815,241.962z"/>
			</g>
			<path style="opacity:0.4;fill:#FFFFFF;" d="M156.268,242.038c0.026-0.028,2.685,2.324,2.685,2.324l0.749-0.546l-2.811-2.366
				L156.268,242.038z"/>
			<polygon style="opacity:0.4;fill:#FFFFFF;" points="157.138,241.263 159.971,243.582 160.226,243.266 157.451,241.096 			"/>
		</g>
		<g>
			<g>
				<path style="fill:#263238;" d="M195.816,240.812c0,0,0.653-0.793,1.198-1.011c0.545-0.218,2.109-0.182,2.727,0
					c0.618,0.182,2.472,2.036,2.218,2.618s-1.236,1.454-1.745,1.527c-0.509,0.073-1.765,0-1.765,0l-3.143-2.291L195.816,240.812z"/>
				<path style="opacity:0.7;fill:#FFFFFF;" d="M195.816,240.812c0,0,0.653-0.793,1.198-1.011c0.545-0.218,2.109-0.182,2.727,0
					c0.618,0.182,2.472,2.036,2.218,2.618s-1.236,1.454-1.745,1.527c-0.509,0.073-1.765,0-1.765,0l-3.143-2.291L195.816,240.812z"/>
				<path style="opacity:0.4;fill:#FFFFFF;" d="M196.22,240.955c0,0,0.56-0.679,1.027-0.866c0.467-0.187,1.808-0.156,2.337,0
					c0.53,0.156,2.119,1.745,1.901,2.244c-0.218,0.499-1.06,1.247-1.496,1.309c-0.436,0.062-1.513,0-1.513,0l-2.694-1.963
					L196.22,240.955z"/>
			</g>
			<path style="opacity:0.4;fill:#FFFFFF;" d="M200.768,241.031c-0.026-0.028-2.685,2.324-2.685,2.324l-0.749-0.546l2.811-2.366
				L200.768,241.031z"/>
			<polygon style="opacity:0.4;fill:#FFFFFF;" points="199.897,240.257 197.064,242.575 196.809,242.259 199.585,240.089 			"/>
		</g>
		<path style="fill:#263238;" d="M159.612,269.638L159.612,269.638c-2.016,0-3.651-1.634-3.651-3.651v-7.329h7.302v7.329
			C163.263,268.004,161.628,269.638,159.612,269.638z"/>
		<path style="fill:#263238;" d="M198.859,269.638L198.859,269.638c2.016,0,3.651-1.634,3.651-3.651v-7.329h-7.302v7.329
			C195.209,268.004,196.843,269.638,198.859,269.638z"/>
		<path style="fill:#263238;" d="M199.566,244.622c-0.673-0.337-2.187-2.523-2.187-2.523l-3.753-6.709
			c-0.669-1.196-1.902-1.969-3.27-2.05l-11.097-0.15v-0.001l-0.023,0l-0.023,0v0.001l-11.097,0.15
			c-1.368,0.081-2.601,0.854-3.27,2.05l-3.753,6.709c0,0-1.514,2.187-2.187,2.523c-0.673,0.336-2.944,5.467-2.944,5.467v13.56
			l6.292-0.01l16.959,0.01v0h0.023h0.023v0l16.959-0.01l6.292,0.01v-13.56C202.51,250.089,200.239,244.959,199.566,244.622z"/>
		<path style="opacity:0.7;fill:#FFFFFF;" d="M199.566,244.622c-0.673-0.337-2.187-2.523-2.187-2.523l-3.753-6.709
			c-0.669-1.196-1.902-1.969-3.27-2.05l-11.097-0.15v-0.001l-0.023,0l-0.023,0v0.001l-11.097,0.15
			c-1.368,0.081-2.601,0.854-3.27,2.05l-3.753,6.709c0,0-1.514,2.187-2.187,2.523c-0.673,0.336-2.944,5.467-2.944,5.467v13.56
			l6.292-0.01l16.959,0.01v0h0.023h0.023v0l16.959-0.01l6.292,0.01v-13.56C202.51,250.089,200.239,244.959,199.566,244.622z"/>
		<path style="opacity:0.3;" d="M160.498,263.649v-1.72c0-0.539,0.437-0.975,0.975-0.975h4.876c0.539,0,0.975,0.437,0.975,0.975
			v1.72H160.498z"/>
		<g>
			<path style="fill:#263238;" d="M179.259,243.378c-5.39,0.307-10.793,0.294-16.186,0.141c-1.67-0.149,0.357-1.813,0.927-2.182
				c-0.315,0.308-2.123,1.952-0.919,1.9l0.6-0.017C168.874,243.085,174.068,243.081,179.259,243.378L179.259,243.378z"/>
		</g>
		<g>
			<path style="fill:#263238;" d="M163.495,243.378c0.473,2.73,0.039,5.99,1.744,8.29c0.553,0.74,1.201,1.42,2.148,1.515
				c1.864,0.067,3.849,0.031,5.768,0.081c1.934,0.04,3.868,0.088,5.803,0.192c-1.934,0.104-3.868,0.152-5.803,0.192
				c-1.949,0.027-3.836,0.066-5.835,0.029c-1.06-0.111-1.874-0.924-2.443-1.736C163.126,249.601,163.673,246.149,163.495,243.378
				L163.495,243.378z"/>
		</g>
		<path style="fill:#263238;" d="M163.937,262.856c0,0.634-0.514,1.147-1.147,1.147s-1.147-0.514-1.147-1.147
			c0-0.634,0.514-1.147,1.147-1.147S163.937,262.222,163.937,262.856z"/>
		<path style="fill:#263238;" d="M166.559,262.856c0,0.634-0.514,1.147-1.147,1.147c-0.634,0-1.147-0.514-1.147-1.147
			c0-0.634,0.514-1.147,1.147-1.147C166.045,261.709,166.559,262.222,166.559,262.856z"/>
		<path style="opacity:0.3;fill:#FFFFFF;" d="M163.813,262.856c0,0.565-0.458,1.023-1.023,1.023s-1.023-0.458-1.023-1.023
			c0-0.565,0.458-1.023,1.023-1.023S163.813,262.291,163.813,262.856z"/>
		<path style="opacity:0.3;fill:#FFFFFF;" d="M166.435,262.856c0,0.565-0.458,1.023-1.023,1.023c-0.565,0-1.023-0.458-1.023-1.023
			c0-0.565,0.458-1.023,1.023-1.023C165.977,261.833,166.435,262.291,166.435,262.856z"/>
		<path style="fill:#263238;" d="M191.991,235.484c-0.12-0.04-9.364-0.012-12.049-0.003c-2.945-0.009-13.088-0.037-13.22,0.003
			c-0.154,0.047-2.723,5.853-2.723,5.853h15.214h1.529h13.731C194.472,241.337,192.131,235.531,191.991,235.484z"/>
		<path style="opacity:0.3;" d="M158.179,249.99c0.27-0.018,0.749,1.431,3.463,1.321c2.782-0.112,4.848,0.124,5.683-0.556
			c0.835-0.68,3.344-3.526,3.344-3.526L158.179,249.99z"/>
		<path style="opacity:0.3;" d="M199.977,249.99c-0.27-0.018-0.749,1.431-3.463,1.321c-2.782-0.112-4.848,0.124-5.683-0.556
			c-0.835-0.68-3.344-3.526-3.344-3.526L199.977,249.99z"/>
		<path style="fill:#FFFFFF;" d="M158.857,246.285c0,0-1.142,1.21-0.984,2.062c0.158,0.852,0.197,2.112,0.788,2.19
			c0.591,0.079,7.481-0.118,8.111-0.394c0.63-0.276,3.937-2.284,3.898-2.914c-0.039-0.63-0.669-0.945-0.669-0.945H158.857z"/>
		<g>
			<path style="fill:#263238;" d="M179.213,243.378c5.191-0.297,10.385-0.292,15.578-0.158l0.6,0.017
				c1.206,0.05-0.605-1.591-0.918-1.9c0.571,0.368,2.596,2.034,0.927,2.182C190.006,243.671,184.603,243.685,179.213,243.378
				L179.213,243.378z"/>
		</g>
		<g>
			<path style="fill:#263238;" d="M194.977,243.378c-0.178,2.769,0.368,6.224-1.381,8.563c-0.569,0.812-1.383,1.625-2.443,1.736
				c-1.999,0.038-3.886-0.002-5.835-0.029c-1.934-0.04-3.868-0.088-5.803-0.192c1.934-0.104,3.868-0.152,5.803-0.192
				c1.919-0.05,3.903-0.014,5.768-0.081c0.947-0.095,1.595-0.774,2.148-1.515C194.938,249.367,194.503,246.109,194.977,243.378
				L194.977,243.378z"/>
		</g>
		<polygon style="opacity:0.3;" points="195.923,258.658 195.475,258.658 178.957,258.658 178.946,258.658 162.997,258.658 
			162.548,258.658 158.391,258.658 158.391,259.74 162.548,259.74 162.773,259.199 179.213,259.199 179.259,259.199 
			195.699,259.199 195.923,259.74 200.081,259.74 200.081,258.658 		"/>
		<g>
			<path style="opacity:0.3;" d="M168.081,241.337v-0.902c0-1.008,0.817-1.826,1.826-1.826h2.156c1.008,0,1.826,0.817,1.826,1.826
				v0.902H168.081z"/>
			<g style="opacity:0.3;">
				<path d="M181.893,236.432c0,0-0.184,1.24-0.643,1.377c-0.459,0.138-5.417,0-5.417,0l-0.689-1.377H181.893z"/>
				
					<rect x="177.623" y="235.463" transform="matrix(-1 -1.224647e-16 1.224647e-16 -1 357.404 472.1242)" width="2.158" height="1.198"/>
			</g>
			<path style="opacity:0.3;" d="M190.39,241.337v-0.902c0-1.008-0.817-1.826-1.826-1.826h-2.156c-1.008,0-1.826,0.817-1.826,1.826
				v0.902H190.39z"/>
		</g>
		<path style="fill:#FFFFFF;" d="M199.298,246.102c0,0,1.142,1.21,0.984,2.062c-0.158,0.852-0.197,2.112-0.788,2.19
			c-0.591,0.079-7.481-0.118-8.111-0.394c-0.63-0.276-3.937-2.284-3.898-2.914c0.039-0.63,0.669-0.945,0.669-0.945H199.298z"/>
		<path style="opacity:0.3;" d="M180.63,246.688c0,0.697-0.565,1.262-1.262,1.262c-0.697,0-1.262-0.565-1.262-1.262
			s0.565-1.262,1.262-1.262C180.065,245.426,180.63,245.991,180.63,246.688z"/>
		<g>
			<path style="fill:#263238;" d="M156.144,254.845c14.879-0.327,31.248-0.33,46.127,0
				C187.392,255.175,171.023,255.172,156.144,254.845L156.144,254.845z"/>
		</g>
		<path style="opacity:0.3;fill:#FFFFFF;" d="M176.902,235.876c0,0,4.181,3.858,5.425,4.71c0.155,0.106,0.337,0.16,0.524,0.16h9.938
			c0.4,0,0.677-0.397,0.539-0.771c-0.518-1.402-1.537-4.061-1.885-4.098C190.698,235.797,176.902,235.876,176.902,235.876z"/>
		<path style="opacity:0.3;" d="M168.081,253.456c0,0,6.253,0.758,11.433,0.62c6.141-0.163,11.786-0.509,11.081-0.544
			C190.375,253.52,168.081,253.456,168.081,253.456z"/>
		<path style="opacity:0.3;" d="M167.085,243.345c0,0,6.253,0.758,11.433,0.62c6.141-0.163,11.786-0.509,11.081-0.545
			C189.379,243.41,167.085,243.345,167.085,243.345z"/>
		<g>
			<path style="fill:#263238;" d="M183.447,257.919h-8.158c-0.713,0-1.292-0.578-1.292-1.292v-0.023
				c0-0.713,0.578-1.292,1.292-1.292h8.158c0.713,0,1.292,0.578,1.292,1.292v0.023C184.738,257.341,184.16,257.919,183.447,257.919z
				"/>
			<path style="opacity:0.4;fill:#FFFFFF;" d="M183.447,257.919h-8.158c-0.713,0-1.292-0.578-1.292-1.292v-0.023
				c0-0.713,0.578-1.292,1.292-1.292h8.158c0.713,0,1.292,0.578,1.292,1.292v0.023C184.738,257.341,184.16,257.919,183.447,257.919z
				"/>
		</g>
		<path style="fill:none;stroke:#FFFFFF;stroke-width:0.25;stroke-linecap:round;stroke-linejoin:round;stroke-miterlimit:10;" d="
			M172.261,233.654c0.214,0,0.428,0,0.642,0"/>
		<path style="fill:none;stroke:#FFFFFF;stroke-width:0.25;stroke-linecap:round;stroke-linejoin:round;stroke-miterlimit:10;" d="
			M173.477,233.654c1.584,0,3.168,0,4.752,0"/>
		<path style="fill:none;stroke:#FFFFFF;stroke-width:0.25;stroke-linecap:round;stroke-linejoin:round;stroke-miterlimit:10;" d="
			M174.925,242.821c1.584,0,3.168,0,4.752,0"/>
	</g>
</g>
<g id="Lines">
	<g>
		<polygon style="fill:#263238;" points="345.885,230.788 436.628,332.589 423.309,332.589 336.153,230.788 		"/>
		<polygon style="opacity:0.7;fill:#FFFFFF;" points="345.885,230.788 436.628,332.589 423.309,332.589 336.153,230.788 		"/>
	</g>
	<g>
		<polygon style="fill:#263238;" points="149.116,233.189 56.638,333.45 69.956,333.45 158.848,233.189 		"/>
		<polygon style="opacity:0.7;fill:#FFFFFF;" points="149.116,233.189 56.638,333.45 69.956,333.45 158.848,233.189 		"/>
	</g>
	<g>
		<polygon style="fill:#263238;" points="248.4,349.769 246.726,468.977 260.936,468.977 256.975,349.769 		"/>
		<polygon style="opacity:0.7;fill:#FFFFFF;" points="248.4,349.769 246.726,468.977 260.936,468.977 256.975,349.769 		"/>
	</g>
	<g>
		<polygon style="fill:#263238;" points="56.751,342.904 3.141,401.817 3.105,415.172 66.484,342.904 		"/>
		<polygon style="opacity:0.7;fill:#FFFFFF;" points="56.751,342.904 3.141,401.817 3.105,415.172 66.484,342.904 		"/>
	</g>
	<g>
		<polygon style="fill:#263238;" points="450.077,344.942 497.057,396.569 497.089,413.21 436.195,344.942 		"/>
		<polygon style="opacity:0.7;fill:#FFFFFF;" points="450.077,344.942 497.057,396.569 497.089,413.21 436.195,344.942 		"/>
	</g>
</g>
<g id="Toll_Road">
	<g>
		<rect x="63.769" y="61.995" style="fill:#263238;" width="359.988" height="80.372"/>
		<rect x="50.988" y="96.2" style="fill:#407BFF;" width="388.493" height="34.098"/>
		<g>
			<path style="opacity:0.6;" d="M162.625,123.817h-41.79c-5.812,0-10.523-4.711-10.523-10.523v-1.132
				c0-5.812,4.711-10.523,10.523-10.523h41.79c5.812,0,10.523,4.711,10.523,10.523v1.132
				C173.148,119.105,168.437,123.817,162.625,123.817z"/>
			<path style="opacity:0.6;" d="M131.507,112.728c0,3.445-2.793,6.238-6.238,6.238c-3.445,0-6.238-2.793-6.238-6.238
				c0-3.445,2.793-6.238,6.238-6.238C128.714,106.49,131.507,109.283,131.507,112.728z"/>
			<path style="opacity:0.6;" d="M147.561,112.728c0,3.445-2.793,6.238-6.238,6.238c-3.445,0-6.238-2.793-6.238-6.238
				c0-3.445,2.793-6.238,6.238-6.238C144.768,106.49,147.561,109.283,147.561,112.728z"/>
			<path style="fill:#407BFF;" d="M164.429,112.728c0,3.445-2.793,6.238-6.238,6.238c-3.445,0-6.238-2.793-6.238-6.238
				c0-3.445,2.793-6.238,6.238-6.238C161.636,106.49,164.429,109.283,164.429,112.728z"/>
		</g>
		<g>
			<path style="opacity:0.6;" d="M368.872,123.817h-41.79c-5.812,0-10.523-4.711-10.523-10.523v-1.132
				c0-5.812,4.711-10.523,10.523-10.523h41.79c5.812,0,10.523,4.711,10.523,10.523v1.132
				C379.395,119.105,374.684,123.817,368.872,123.817z"/>
			<path style="fill:#FFFFFF;" d="M337.754,112.728c0,3.445-2.793,6.238-6.238,6.238c-3.445,0-6.238-2.793-6.238-6.238
				c0-3.445,2.793-6.238,6.238-6.238C334.961,106.49,337.754,109.283,337.754,112.728z"/>
			<path style="opacity:0.6;" d="M353.807,112.728c0,3.445-2.793,6.238-6.238,6.238c-3.445,0-6.238-2.793-6.238-6.238
				c0-3.445,2.793-6.238,6.238-6.238C351.015,106.49,353.807,109.283,353.807,112.728z"/>
			<path style="opacity:0.6;" d="M370.676,112.728c0,3.445-2.793,6.238-6.238,6.238c-3.445,0-6.238-2.793-6.238-6.238
				c0-3.445,2.793-6.238,6.238-6.238C367.883,106.49,370.676,109.283,370.676,112.728z"/>
		</g>
		<g>
			<g>
				<path style="fill:#407BFF;" d="M209.618,88.368H93.797c-2.802,0-5.073-2.271-5.073-5.074V34.158
					c0-2.802,2.271-5.074,5.073-5.074h115.821c2.802,0,5.074,2.272,5.074,5.074v49.136
					C214.692,86.096,212.421,88.368,209.618,88.368z"/>
				<path style="opacity:0.6;fill:#FFFFFF;" d="M214.692,61.163H88.724V34.158c0-2.802,2.271-5.074,5.073-5.074h115.821
					c2.802,0,5.074,2.272,5.074,5.074V61.163z"/>
			</g>
			<polygon style="fill:#FFFFFF;" points="165.029,73.465 165.029,67.486 158.342,67.486 158.342,73.465 153.719,73.465 
				161.599,82.643 169.652,73.465 			"/>
			<polygon style="fill:#FFFFFF;" points="143.872,73.465 143.872,67.486 137.185,67.486 137.185,73.465 132.562,73.465 
				140.442,82.643 148.495,73.465 			"/>
			<g>
				<g>
					<path style="fill:none;stroke:#FFFFFF;stroke-miterlimit:10;" d="M154.172,55.454h-18.934c-1.58,0-2.86-1.281-2.86-2.86V41.19
						c0-1.58,1.281-2.86,2.86-2.86h18.934c1.58,0,2.86,1.281,2.86,2.86v11.403C157.032,54.173,155.751,55.454,154.172,55.454z"/>
					<path style="fill:none;stroke:#FFFFFF;stroke-miterlimit:10;" d="M132.776,45.093c8.031,0,16.062,0,24.094,0"/>
					<path style="fill:none;stroke:#FFFFFF;stroke-miterlimit:10;" d="M132.776,48.69c8.031,0,16.062,0,24.094,0"/>
					<path style="fill:none;stroke:#FFFFFF;stroke-miterlimit:10;" d="M137.317,42.027c0,0.665-0.539,1.203-1.203,1.203
						c-0.664,0-1.203-0.539-1.203-1.203s0.539-1.203,1.203-1.203C136.779,40.823,137.317,41.362,137.317,42.027z"/>
				</g>
				<g>
					<path style="fill:none;stroke:#FFFFFF;stroke-miterlimit:10;" d="M157.032,38.33h9.221c1.429,0,2.588,1.159,2.588,2.588v11.948
						c0,1.429-1.159,2.588-2.588,2.588h-8.446"/>
					<path style="fill:none;stroke:#FFFFFF;stroke-miterlimit:10;" d="M158.069,45.093c7.216,0,3.394,0,10.61,0"/>
					<path style="fill:none;stroke:#FFFFFF;stroke-miterlimit:10;" d="M158.069,48.69c7.216,0,3.394,0,10.61,0"/>
				</g>
			</g>
		</g>
		<g>
			<g>
				<path style="fill:#407BFF;" d="M399.201,91.585H283.38c-2.802,0-5.073-2.271-5.073-5.074V37.375
					c0-2.802,2.272-5.074,5.073-5.074h115.821c2.802,0,5.073,2.271,5.073,5.074v49.136
					C404.274,89.313,402.003,91.585,399.201,91.585z"/>
				<path style="opacity:0.6;fill:#FFFFFF;" d="M404.274,64.38H278.306V37.375c0-2.802,2.272-5.074,5.073-5.074h115.821
					c2.802,0,5.073,2.271,5.073,5.074V64.38z"/>
			</g>
			<polygon style="fill:#FFFFFF;" points="354.622,76.735 354.622,70.755 347.936,70.755 347.936,76.735 343.313,76.735 
				351.193,85.912 359.246,76.735 			"/>
			<polygon style="fill:#FFFFFF;" points="333.465,76.735 333.465,70.755 326.779,70.755 326.779,76.735 322.155,76.735 
				330.035,85.912 338.089,76.735 			"/>
			<g>
				<g>
					<path style="fill:none;stroke:#FFFFFF;stroke-miterlimit:10;" d="M338.465,49.755c0.4,0.248,0.621,0.52,0.621,0.806
						c0,1.144-3.537,2.071-7.9,2.071c-4.363,0-7.899-0.927-7.899-2.071c0-0.268,0.194-0.524,0.548-0.76"/>
					<path style="fill:none;stroke:#FFFFFF;stroke-miterlimit:10;" d="M323.317,50.398c-0.3,0.219-0.03,2.063-0.03,2.309
						c0,1.144,3.537,2.071,7.899,2.071c4.363,0,7.9-0.927,7.9-2.071v-1.879"/>
				</g>
				<g>
					<path style="fill:none;stroke:#FFFFFF;stroke-miterlimit:10;" d="M338.465,53.703c0.4,0.248,0.621,0.52,0.621,0.806
						c0,1.144-3.537,2.071-7.9,2.071c-4.363,0-7.899-0.927-7.899-2.071c0-0.268,0.194-0.524,0.548-0.76"/>
					<path style="fill:none;stroke:#FFFFFF;stroke-miterlimit:10;" d="M323.317,54.346c-0.3,0.219-0.03,2.063-0.03,2.309
						c0,1.144,3.537,2.071,7.899,2.071c4.363,0,7.9-0.927,7.9-2.071v-1.879"/>
				</g>
				<g>
					<path style="fill:none;stroke:#FFFFFF;stroke-miterlimit:10;" d="M339.086,46.716c0,1.144-3.537,2.071-7.9,2.071
						c-4.363,0-7.899-0.927-7.899-2.071c0-1.144,3.537-2.071,7.899-2.071C335.549,44.645,339.086,45.572,339.086,46.716z"/>
					<path style="fill:none;stroke:#FFFFFF;stroke-miterlimit:10;" d="M323.317,46.553c-0.3,0.219-0.03,2.063-0.03,2.309
						c0,1.144,3.537,2.071,7.899,2.071c4.363,0,7.9-0.927,7.9-2.071v-1.878"/>
				</g>
			</g>
			<g>
				<g>
					<path style="fill:none;stroke:#FFFFFF;stroke-miterlimit:10;" d="M357.408,53.139c0.4,0.248,0.621,0.52,0.621,0.806
						c0,1.144-3.537,2.071-7.899,2.071c-4.363,0-7.899-0.927-7.899-2.071c0-0.268,0.194-0.524,0.548-0.76"/>
					<path style="fill:none;stroke:#FFFFFF;stroke-miterlimit:10;" d="M342.26,53.782c-0.3,0.219-0.03,2.063-0.03,2.309
						c0,1.144,3.537,2.071,7.899,2.071c4.363,0,7.899-0.927,7.899-2.071v-1.878"/>
				</g>
				<g>
					<ellipse style="fill:none;stroke:#FFFFFF;stroke-miterlimit:10;" cx="350.129" cy="50.1" rx="7.899" ry="2.071"/>
					<path style="fill:none;stroke:#FFFFFF;stroke-miterlimit:10;" d="M342.26,49.936c-0.3,0.219-0.03,2.063-0.03,2.309
						c0,1.144,3.537,2.071,7.899,2.071c4.363,0,7.899-0.927,7.899-2.071v-1.879"/>
				</g>
			</g>
		</g>
		<g>
			<g>
				<path style="fill:#407BFF;" d="M190.97,286.94H94.997c-0.373,0-0.676-0.302-0.676-0.676v-10.091
					c0-0.373,0.302-0.676,0.676-0.676h95.973c2.999,0,5.429,2.431,5.429,5.429v0.584C196.399,284.509,193.968,286.94,190.97,286.94z
					"/>
				<polygon style="opacity:0.6;fill:#FFFFFF;" points="100.503,286.94 117.801,275.498 130.146,275.498 113.928,286.94 				"/>
				<polygon style="opacity:0.6;fill:#FFFFFF;" points="128.286,286.94 145.584,275.498 157.929,275.498 141.711,286.94 				"/>
				<polygon style="opacity:0.6;fill:#FFFFFF;" points="156.069,286.94 173.367,275.498 185.712,275.498 169.494,286.94 				"/>
			</g>
			<rect x="37.956" y="204.673" style="fill:#263238;" width="62.546" height="135.18"/>
			<rect x="48.342" y="279.255" style="fill:#407BFF;" width="39.495" height="60.597"/>
			<rect x="37.956" y="213.375" style="fill:#407BFF;" width="62.546" height="55.672"/>
			<rect x="37.956" y="213.375" style="opacity:0.6;fill:#FFFFFF;" width="62.546" height="55.672"/>
			<polygon style="opacity:0.6;fill:#FFFFFF;" points="100.503,223.799 37.956,252.454 37.956,258.624 100.503,229.777 
				100.503,223.799 			"/>
			<polygon style="opacity:0.6;fill:#FFFFFF;" points="84.789,213.375 37.956,232.466 37.956,248.2 100.503,219.354 
				100.503,213.375 			"/>
			<rect x="60.994" y="127.44" style="fill:#407BFF;" width="15.483" height="181.645"/>
			<path style="opacity:0.3;" d="M87.837,279.255c0,0.711-39.495,25.063-39.495,25.063v10.245l39.495-24.945V279.255z"/>
			<path style="opacity:0.3;" d="M87.837,302.716c0,0.711-39.495,25.063-39.495,25.063v10.245l39.495-24.945V302.716z"/>
			<path style="opacity:0.3;" d="M67.505,339.853l15.662-0.029l4.67-2.881v-10.766C87.837,326.553,77.57,333.315,67.505,339.853z"/>
			<polygon style="opacity:0.3;" points="48.342,279.255 48.342,288.757 63.385,279.255 			"/>
			<rect x="60.994" y="275.498" style="opacity:0.3;" width="15.68" height="3.758"/>
			<rect x="100.503" y="275.498" style="opacity:0.3;" width="4.578" height="11.442"/>
		</g>
		<rect x="60.994" y="130.298" style="opacity:0.2;" width="15.483" height="6.348"/>
		<g>
			<rect x="216.093" y="207.531" style="fill:#263238;" width="62.546" height="135.18"/>
			<rect x="226.479" y="282.114" style="fill:#407BFF;" width="39.495" height="60.597"/>
			<rect x="216.093" y="216.234" style="fill:#407BFF;" width="62.546" height="55.672"/>
			<rect x="216.093" y="216.234" style="opacity:0.6;fill:#FFFFFF;" width="62.546" height="55.672"/>
			<polygon style="opacity:0.6;fill:#FFFFFF;" points="278.64,226.658 216.093,255.313 216.093,261.482 278.64,232.636 
				278.64,226.658 			"/>
			<polygon style="opacity:0.6;fill:#FFFFFF;" points="262.926,216.234 216.093,235.324 216.093,251.058 278.64,222.212 
				278.64,216.234 			"/>
			<rect x="239.131" y="130.298" style="fill:#407BFF;" width="15.483" height="181.645"/>
			<path style="opacity:0.3;" d="M265.974,282.114c0,0.711-39.495,25.063-39.495,25.063v10.245l39.495-24.945V282.114z"/>
			<path style="opacity:0.3;" d="M265.974,305.574c0,0.711-39.495,25.063-39.495,25.063v10.246l39.495-24.945V305.574z"/>
			<path style="opacity:0.3;" d="M245.642,342.711l15.662-0.029l4.67-2.881v-10.766
				C265.974,329.412,255.707,336.174,245.642,342.711z"/>
			<polygon style="opacity:0.3;" points="226.479,282.114 226.479,291.615 241.522,282.114 			"/>
			<rect x="239.131" y="278.356" style="opacity:0.3;" width="15.68" height="3.758"/>
		</g>
		<g>
			<rect x="399.497" y="207.531" style="fill:#263238;" width="62.546" height="135.18"/>
			<rect x="409.883" y="282.114" style="fill:#407BFF;" width="39.495" height="60.597"/>
			<rect x="399.497" y="216.234" style="fill:#407BFF;" width="62.546" height="55.672"/>
			<rect x="399.497" y="216.234" style="opacity:0.6;fill:#FFFFFF;" width="62.546" height="55.672"/>
			<polygon style="opacity:0.6;fill:#FFFFFF;" points="462.044,226.658 399.497,255.313 399.497,261.482 462.044,232.636 
				462.044,226.658 			"/>
			<polygon style="opacity:0.6;fill:#FFFFFF;" points="446.33,216.234 399.497,235.324 399.497,251.058 462.044,222.212 
				462.044,216.234 			"/>
			<rect x="422.534" y="130.298" style="fill:#407BFF;" width="15.483" height="181.645"/>
			<path style="opacity:0.3;" d="M449.378,282.114c0,0.711-39.495,25.063-39.495,25.063v10.245l39.495-24.945V282.114z"/>
			<path style="opacity:0.3;" d="M449.378,305.574c0,0.711-39.495,25.063-39.495,25.063v10.246l39.495-24.945V305.574z"/>
			<path style="opacity:0.3;" d="M429.046,342.711l15.662-0.029l4.67-2.881v-10.766
				C449.378,329.412,439.111,336.174,429.046,342.711z"/>
			<polygon style="opacity:0.3;" points="409.883,282.114 409.883,291.615 424.926,282.114 			"/>
			<rect x="422.534" y="278.356" style="opacity:0.3;" width="15.68" height="3.758"/>
		</g>
		<rect x="239.131" y="130.298" style="opacity:0.2;" width="15.483" height="6.348"/>
		<rect x="422.534" y="130.298" style="opacity:0.2;" width="15.483" height="6.348"/>
	</g>
</g>
</svg>
