<?xml version="1.0" standalone="no"?>
<!DOCTYPE svg PUBLIC "-//W3C//DTD SVG 20010904//EN"
 "http://www.w3.org/TR/2001/REC-SVG-20010904/DTD/svg10.dtd">
<svg version="1.0" xmlns="http://www.w3.org/2000/svg"
 width="215.000000pt" height="193.000000pt" viewBox="0 0 215.000000 193.000000"
 preserveAspectRatio="xMidYMid meet">
<metadata>
Created by potrace 1.16, written by Peter Selinger 2001-2019
</metadata>
<g transform="translate(0.000000,193.000000) scale(0.100000,-0.100000)"
fill="#000000" stroke="none">
<path d="M0 965 l0 -965 1075 0 1075 0 0 965 0 965 -1075 0 -1075 0 0 -965z
m1123 605 c82 -6 150 -16 166 -25 116 -59 143 -231 57 -360 -38 -57 -112 -132
-139 -141 -18 -6 -17 -7 4 -30 27 -29 48 -107 42 -154 -19 -144 -101 -258
-231 -322 l-67 -33 -379 -3 c-220 -2 -383 1 -388 6 -5 5 -5 18 1 33 5 13 26
80 46 149 20 69 43 143 50 165 8 22 28 87 45 145 17 58 42 138 56 178 13 40
24 77 24 82 0 13 -51 -19 -68 -42 -18 -25 -68 -23 -82 2 -9 17 -5 33 26 88 50
89 88 141 128 174 51 41 138 77 213 87 96 12 333 13 496 1z m757 -211 c0 -6
-8 -24 -17 -40 l-17 -29 -153 0 c-84 0 -153 2 -153 5 0 2 8 20 17 40 l17 35
153 0 c104 0 153 -3 153 -11z m47 -151 c-2 -7 -13 -37 -23 -65 l-19 -53 -115
0 c-63 0 -120 -4 -126 -8 -6 -4 -18 -22 -27 -39 l-15 -33 94 0 c105 0 102 2
83 -76 l-11 -44 -99 0 c-87 0 -99 -2 -109 -19 -5 -11 -10 -29 -10 -40 0 -25
53 -34 177 -29 74 2 87 1 84 -12 -17 -72 -32 -115 -41 -124 -7 -7 -69 -11
-175 -11 l-165 0 -32 33 c-33 32 -33 33 -32 130 1 80 6 109 27 164 29 72 23
79 -32 36 -37 -28 -50 -7 -26 40 29 54 83 107 139 136 48 25 53 26 254 26 159
0 203 -3 199 -12z"/>
<path d="M800 1308 c-5 -13 -17 -51 -28 -85 l-19 -63 87 0 c74 0 92 3 121 23
46 30 75 90 60 123 -10 23 -15 24 -111 24 -95 0 -101 -1 -110 -22z"/>
<path d="M677 903 c-5 -8 -47 -142 -47 -149 0 -2 43 -4 96 -4 l96 0 39 39 c30
30 39 46 39 74 0 28 -5 36 -22 41 -33 8 -196 7 -201 -1z"/>
</g>
</svg>
